SplineFontDB: 3.2
FontName: MyFont
FullName: MyFont
FamilyName: MyFont
Weight: Medium
Copyright: Originally traced with Glyphtracer
UComments: "No comments"
Version: 001.000
ItalicAngle: 0
UnderlinePosition: -100
UnderlineWidth: 50
Ascent: 1638
Descent: 410
InvalidEm: 0
LayerCount: 2
Layer: 0 0 "Back" 1
Layer: 1 0 "Fore" 0
XUID: [1021 397 1238052781 15881202]
StyleMap: 0x0000
FSType: 0
OS2Version: 0
OS2_WeightWidthSlopeOnly: 0
OS2_UseTypoMetrics: 1
CreationTime: 1270926697
ModificationTime: 1571338294
OS2TypoAscent: 0
OS2TypoAOffset: 1
OS2TypoDescent: 0
OS2TypoDOffset: 1
OS2TypoLinegap: 184
OS2WinAscent: 0
OS2WinAOffset: 1
OS2WinDescent: 0
OS2WinDOffset: 1
HheadAscent: 0
HheadAOffset: 1
HheadDescent: 0
HheadDOffset: 1
OS2Vendor: 'PfEd'
DEI: 91125
Encoding: UnicodeBmp
UnicodeInterp: none
NameList: Adobe Glyph List
DisplaySize: -36
AntiAlias: 1
FitToEm: 1
WinInfo: 19 19 12
AnchorClass2: "d""" 
BeginChars: 65536 71

StartChar: A
Encoding: 65 65 0
Width: 1312
VWidth: 0
Flags: HW
LayerCount: 2
Fore
SplineSet
546.240696056 1168.41466357 m 0
 563.684825986 1174.57141531 601.309419954 1174.57141531 618.753549884 1168.07262181 c 0
 639.276055684 1160.88974478 660.140603248 1144.8137819 671.427981439 1128.0537355 c 0
 676.900649652 1119.84473318 789.090348028 900.93800464 921.118468677 641.328306265 c 2
 1161.23178654 169.310672854 l 1
 1161.23178654 129.291786543 l 1
 1161.23178654 89.6149419954 l 1
 1147.55011601 69.4344779582 l 2
 1123.26515081 34.5462180974 1079.14176334 15.049837587 1041.17512761 23.2588399072 c 0
 990.894988399 33.5200928074 970.629978608 62.6233545679 925.907053364 149.814292343 c 2
 885.204101562 228.16796875 l 1
 582.155273438 227.484375 l 1
 279.106445312 227.458007812 l 5
 239.429234339 149.814292343 l 2
 217.538561485 107.059071926 194.963805104 66.0140603248 188.807053364 58.4891415313 c 0
 175.809466357 42.4131786543 142.631415313 24.9690487239 118.688491879 21.8906728538 c 0
 82.7741067285 17.1020881671 37.2825522042 38.9927610209 16.7600464037 71.1446867749 c 0
 3.07837587007 92.6933178654 -1.02612529002 110.137447796 0.684083526682 138.526914153 c 2
 2.39429234339 162.81187935 l 1
 246.270069606 643.038515081 l 2
 380.350440835 907.436798144 493.908306265 1128.39577726 498.354849188 1134.21048724 c 0
 508.274060325 1147.55011601 528.796566125 1161.91587007 546.240696056 1168.41466357 c 0
698.791322506 597.88900232 m 0
 656.036102088 682.031276102 612.254756381 767.541716937 601.651461717 788.064222738 c 2
 582.155081206 825.346774942 l 1
 566.079118329 793.194849188 l 2
 557.186032483 775.408677494 513.746728538 689.898236659 469.623341067 603.01962877 c 2
 389.243526682 444.654292343 l 1
 582.839164733 444.654292343 l 1
 776.434802784 444.654292343 l 1
 698.791322506 597.88900232 l 0
EndSplineSet
EndChar

StartChar: B
Encoding: 66 66 1
Width: 1131
VWidth: 0
Flags: HW
LayerCount: 2
Fore
SplineSet
78.6696055684 1170.12487239 m 0
 83.4581902552 1171.49303944 207.961392111 1172.8612065 355.723433875 1172.8612065 c 0
 661.166728538 1173.20324826 650.905475638 1173.88733179 714.183201856 1144.12969838 c 0
 754.886171694 1124.63331787 781.907470998 1105.47897912 812.691229698 1073.66909513 c 0
 854.420324826 1030.22979118 880.41549884 983.712111369 894.439211137 928.643387471 c 0
 915.645800464 844.843155452 906.06863109 765.831508121 865.365661253 688.872111369 c 2
 848.947656613 657.746310905 l 1
 874.2587471 633.119303944 l 2
 905.384547564 603.01962877 923.170719258 579.4187471 942.667099768 542.136194896 c 0
 972.766774942 485.699303944 981.659860789 447.732668213 981.659860789 374.877772622 c 0
 981.659860789 330.754385151 980.291693735 317.072714617 973.450858469 290.051415313 c 0
 944.035266821 174.099257541 856.472575406 79.0116473318 744.28287703 41.0450116009 c 0
 688.872111369 22.2327146172 691.950487239 22.2327146172 375.903897912 22.2327146172 c 2
 83.1161484919 22.2327146172 l 1
 59.5152668213 34.2041763341 l 2
 42.7552204176 42.7552204176 32.4939675174 50.9642227378 23.2588399072 63.2777262181 c 0
 -1.71020881671 95.7716937355 -0.342041763341 60.199350348 0.684083526682 604.04575406 c 2
 1.71020881671 1092.82343387 l 1
 8.89308584687 1108.55735499 l 2
 22.2327146172 1137.63090487 48.9119721578 1160.88974478 78.6696055684 1170.12487239 c 0
624.910301624 946.771600928 m 0
 624.910301624 946.771600928 596 956 575.124023438 957.006835938 c 16
 561.641601562 957.65625 544.479492188 958.025390625 529 958.205078125 c 0
 473.15234375 958.8515625 413.186523438 959.033203125 413.186523438 959.033203125 c 1
 218.906728538 958.058979118 l 1
 218.906728538 844.843155452 l 1
 218.906728538 731.96937355 l 1
 403.267238979 731.96937355 l 2
 580.786914153 731.96937355 588.311832947 732.311415313 610.886589327 739.15225058 c 0
 630.040928074 744.966960557 637.223805104 749.755545244 653.299767981 765.831508121 c 0
 679.636983759 791.826682135 688.872111369 815.769605568 686.819860789 851.683990719 c 0
 684.083526682 894.097169374 663.218979118 926.591136891 624.910301624 946.771600928 c 0
647.485351562 515.0625 m 0
 634.487304688 516.772460938 536.321484919 516.483062645 421.7374942 516.483062645 c 2
 218.906728538 516.483062645 l 1
 218.906728538 377.956148492 l 1
 218.90625 238.086914062 l 1
 440.549804688 239.11328125 l 1
 440.549804688 239.11328125 522.229492188 239.594726562 580 239.6171875 c 0
 603.952148438 239.626953125 623.793524107 239.728950451 632 240 c 0
 651.335073544 240.632324353 672.660110492 245.327871774 681.689234339 249.006403712 c 4
 709.394617169 260.293781903 739.15225058 288.68324826 753.175962877 317.414756381 c 0
 763.779257541 338.621345708 764.463341067 342.383805104 764.463341067 376.245939675 c 0
 764.463341067 409.423990719 763.779257541 413.870533643 753.51800464 435.419164733 c 0
 733.337540603 478.174385151 695.029296875 508.221679688 647.485351562 515.0625 c 0
EndSplineSet
EndChar

StartChar: C
Encoding: 67 67 2
Width: 1196
VWidth: 0
Flags: HW
LayerCount: 2
Fore
SplineSet
530.164733179 1201.59271462 m 0
 560.606450116 1204.67109049 618.753549884 1203.6449652 654.325893271 1198.85638051 c 0
 752.49187935 1185.8587935 847.579489559 1149.26032483 936.510348028 1089.745058 c 0
 1029.88774942 1027.49345708 1049.04208817 1002.18236659 1045.9637123 945.745475638 c 0
 1044.59554524 917.013967517 1035.01837587 895.80737819 1015.52199536 875.968955916 c 0
 992.947238979 853.394199536 974.819025522 846.553364269 938.904640371 846.553364269 c 0
 902.648213457 846.553364269 897.85962877 848.605614849 847.579489559 886.57225058 c 0
 807.218561485 917.356009281 776.092761021 935.826264501 738.810208817 952.244269142 c 0
 592.074292343 1016.89016241 449.784918794 990.552946636 336.569095128 877.33712297 c 0
 274.3174942 815.085522042 236.692900232 741.888584687 224.037354988 657.746310905 c 0
 205.567099768 535.637401392 243.191693735 416.264825986 328.018051044 327.676009281 c 0
 384.796983759 267.818700696 449.784918794 232.246357309 526.744315545 218.564686775 c 0
 557.528074246 213.092018561 621.831925754 214.118143852 657.062227378 220.274895592 c 0
 717.261577726 231.220232019 786.354013921 261.661948956 835.608027842 298.94450116 c 0
 885.54612529 336.911136891 893.413085847 342.041763341 912.567424594 347.514431555 c 0
 959.427146172 361.196102088 1013.46974478 336.911136891 1036.38654292 291.76162413 c 0
 1042.88533643 279.106078886 1045.27962877 268.844825986 1045.9637123 246.270069606 c 0
 1046.98983759 218.906728538 1046.30575406 215.828352668 1035.7024594 194.963805104 c 0
 1027.15141531 177.861716937 1018.25832947 167.258422274 997.051740139 149.130208817 c 0
 915.303758701 79.0116473318 803.456102088 25.9951740139 698.107238979 6.84083526682 c 0
 648.169141531 -2.05225058005 537.689651972 -2.73633410673 490.487888631 5.13062645012 c 0
 194.279721578 55.7528074246 -17.7861716937 333.148677494 3.76245939675 640.986264501 c 0
 17.1020881671 831.503526682 116.294199536 1001.1562413 277.053828306 1108.89939675 c 0
 353.329141531 1159.86361949 442.26 1192.35758701 530.164733179 1201.59271462 c 0
EndSplineSet
Validated: 33
EndChar

StartChar: D
Encoding: 68 68 3
Width: 1220
VWidth: 0
Flags: HW
LayerCount: 2
Fore
SplineSet
74.223062645 1168.41466357 m 0
 84.8263573086 1172.17712297 133.396287703 1172.8612065 347.172389791 1172.17712297 c 0
 603.01962877 1171.15099768 607.808213457 1171.15099768 641.328306265 1163.28403712 c 0
 692.292529002 1151.99665893 722.050162413 1141.05132251 771.304176334 1116.76635731 c 0
 919.408259861 1043.56941995 1022.36283063 905.726589327 1061.01354988 728.548955916 c 0
 1068.19642691 696.054988399 1068.88051044 683.741484919 1068.88051044 598.573085847 c 0
 1068.88051044 520.245522042 1067.85438515 499.723016241 1062.7237587 475.438051044 c 0
 1049.38412993 414.212575406 1033.99225058 368.721020882 1009.70728538 319.809048724 c 0
 946.771600928 191.885429234 827.399025522 88.246774942 696.054988399 46.8597215777 c 0
 617.727424594 22.2327146172 583.52324826 19.8384222738 311.25800464 21.2065893271 c 2
 83.8002320186 22.2327146172 l 1
 64.9879350348 31.125800464 l 2
 41.0450116009 42.4131786543 21.8906728538 61.5675174014 10.6032946636 85.5104408353 c 2
 1.71020881671 104.322737819 l 1
 1.71020881671 596.86287703 l 1
 1.71020881671 1089.40301624 l 1
 9.57716937355 1106.16306265 l 2
 24.2849651972 1138.3149884 44.123387471 1157.46932715 74.223062645 1168.41466357 c 0
569 952 m 0
 541.294921875 959.182617188 571.891708334 955.384850484 399.504779582 956.690812065 c 2
 218.90625 956.05859375 l 1
 218.906728538 598.573085847 l 1
 218.90625 240.086914062 l 5
 402.925197216 240.113317865 l 2
 441.248318889 240.411552275 471.640289838 240.661029611 496 240.939689385 c 0
 583.391824088 241.939396927 593.145086003 243.314698732 612.938839907 248.664361949 c 0
 740.17837587 284.236705336 825.346774942 384.454941995 850.315823666 528.112482599 c 0
 858.524825986 574.28812065 855.526723707 657.08313853 843.817030162 701.869698376 c 0
 810.638979118 828.767192575 685.978515625 921.55859375 569 952 c 0
EndSplineSet
EndChar

StartChar: E
Encoding: 69 69 4
Width: 988
VWidth: 0
Flags: HW
LayerCount: 2
Fore
SplineSet
71.1446867749 1168.07262181 m 0
 81.7479814385 1171.83508121 141.605290023 1172.51916473 424.131786543 1172.17712297 c 2
 764.463341067 1171.49303944 l 1
 778.829095128 1163.62607889 l 2
 801.745893271 1151.65461717 816.453689095 1136.60477958 827.741067285 1114.37206497 c 0
 836.634153132 1096.24385151 838.002320186 1089.745058 838.002320186 1065.11805104 c 0
 838.002320186 1040.14900232 836.634153132 1034.67633411 826.714941995 1015.52199536 c 0
 819.190023202 1000.47215777 810.296937355 989.868863109 798.667517401 980.975777262 c 0
 775.184491628 963.238598221 776.516345547 959.003633129 663 958.009377126 c 0
 621.094759372 957.642341552 563.538447592 957.716937355 483.305011601 957.716937355 c 2
 215.486310905 957.716937355 l 1
 215.486310905 832.871693735 l 1
 215.486328125 707.368164062 l 5
 438.839582367 707.342366589 l 2
 692.634570766 705.974199536 679.294941995 707.342366589 712.815034803 676.900649652 c 0
 738.12612529 653.983851508 747.019211137 632.435220418 747.3612529 596.86287703 c 0
 747.3612529 574.630162413 745.651044084 566.421160093 739.15225058 552.397447796 c 0
 728.206914153 530.848816705 707.342366589 509.984269142 685.793735499 499.038932715 c 2
 685.793735499 499.038932715 653 493 645.69140625 492.830078125 c 24
 557 489 442.26 489.803805104 442.26 489.803805104 c 1
 215.486328125 489.77734375 l 1
 215.486310905 364.274477958 l 1
 215.486328125 238.771484375 l 1
 486.725429234 238.745150812 l 1
 486.725429234 238.745150812 606 240 711.622070312 235.71875 c 24
 720 235 777.118886311 228.141856148 777.118886311 228.141856148 c 2
 801.061809745 216.512436195 825.004733179 190.517262181 832.529651972 168.626589327 c 0
 839.370487239 148.104083527 839.370487239 111.847656613 832.529651972 91.3251508121 c 0
 825.004733179 69.4344779582 801.061809745 43.4393039443 777.118886311 31.8098839907 c 2
 757.6225058 22.2327146172 l 1
 419.001160093 22.2327146172 l 1
 80.3798143852 22.2327146172 l 1
 64.6458932715 30.099675174 l 2
 41.3870533643 41.7290951276 23.2588399072 58.4891415313 11.9714617169 79.0116473318 c 2
 1.71020881671 97.4819025522 l 1
 0.684083526682 590.022041763 l 2
 0 950.192018561 0.684083526682 1086.32464037 3.42041763341 1096.24385151 c 0
 12.6555452436 1128.0537355 38.9927610209 1156.44320186 71.1446867749 1168.07262181 c 0
EndSplineSet
EndChar

StartChar: F
Encoding: 70 70 5
Width: 988
VWidth: 0
Flags: HW
LayerCount: 2
Fore
SplineSet
70.8026450116 1168.07262181 m 0
 77.9370421166 1170.74802072 104.254124227 1171.82486255 201 1172.15567036 c 0
 252.678180621 1172.33237605 324.451904904 1172.29621482 424.131786543 1172.17712297 c 2
 764.463341067 1171.49303944 l 1
 778.829095128 1163.62607889 l 2
 801.745893271 1151.65461717 816.453689095 1136.60477958 827.741067285 1114.37206497 c 0
 836.634153132 1096.24385151 838.002320186 1089.745058 838.002320186 1065.11805104 c 0
 838.002320186 1040.14900232 836.634153132 1034.67633411 826.714941995 1015.52199536 c 0
 819.190023202 1000.47215777 810.296937355 989.868863109 798.667517401 980.975777262 c 0
 767.199675174 957.032853828 777.802969838 957.716937355 481.594802784 957.716937355 c 2
 215.486310905 957.716937355 l 1
 215.486310905 832.871693735 l 1
 215.486328125 707.368164062 l 1
 438.839582367 707.342366589 l 2
 692.634570766 705.974199536 679.294941995 707.342366589 712.815034803 676.900649652 c 0
 738.12612529 653.983851508 747.019211137 632.435220418 747.3612529 596.86287703 c 0
 747.3612529 574.630162413 745.651044084 566.421160093 739.15225058 552.397447796 c 0
 728.206914153 530.848816705 707.342366589 509.984269142 685.793735499 499.038932715 c 2
 685.793735499 499.038932715 664 493 656.69140625 492.830078125 c 24
 568 489 442.259765625 489.803710938 442.259765625 489.803710938 c 5
 215.486328125 489.77734375 l 1
 215.486310905 299.97062645 l 2
 215.486310905 187.096844548 214.118143852 106.374988399 212.065893271 99.1921113689 c 0
 202.830765661 65.3299767981 171.020881671 35.2303016241 134.422412993 25.3110904872 c 0
 107.401113689 18.1282134571 87.5626914153 20.5225058005 59.173225058 34.5462180974 c 0
 34.5462180974 46.5176798144 16.4180046404 66.3561020882 6.49879350348 92.3512761021 c 0
 0.342041763341 109.111322506 0 124.161160093 0 598.231044084 c 0
 0 1133.86844548 -1.36816705336 1100.0063109 20.1804640371 1129.42190255 c 0
 32.1519257541 1145.49786543 52.6744315545 1161.23178654 70.8026450116 1168.07262181 c 0
EndSplineSet
EndChar

StartChar: G
Encoding: 71 71 6
Width: 1196
VWidth: 0
Flags: HW
LayerCount: 2
Fore
SplineSet
543.846403712 1189.96329466 m 0
 631.067053364 1198.51433875 733.679582367 1183.1224594 818.163897912 1149.26032483 c 0
 915.303758701 1110.60960557 1019.28445476 1031.59795824 1035.01837587 984.396194896 c 0
 1044.59554524 956.006728538 1042.88533643 927.617262181 1029.88774942 901.622088167 c 0
 1011.4174942 863.9974942 975.845150812 840.738654292 935.826264501 840.396612529 c 0
 902.99025522 840.054570766 884.177958237 848.263573086 847.921531323 879.047331787 c 0
 774.382552204 940.956890951 702.553781903 969.688399072 612.254756381 973.792900232 c 0
 501.775266821 978.581484919 404.635406032 939.930765661 326.649883991 860.235034803 c 0
 185.044593968 715.55136891 182.992343387 486.383387471 322.203341067 339.989512761 c 0
 378.640232019 280.816287703 442.602041763 245.243944316 521.613689095 228.825939675 c 0
 570.18361949 218.564686775 650.221392111 220.958979118 697.765197216 233.614524362 c 0
 736.757958237 244.217819026 777.118886311 260.977865429 807.218561485 279.44812065 c 2
 829.451276102 293.129791183 l 1
 830.477401392 385.823109049 l 1
 831.161484919 478.516426914 l 1
 681.347192575 479.542552204 l 1
 531.190858469 480.568677494 l 1
 507.589976798 492.540139211 l 2
 466.887006961 513.404686775 445.33837587 552.055406032 449.100835267 597.204918794 c 0
 452.179211137 636.539721578 473.043758701 666.981438515 508.958143852 684.767610209 c 2
 531.874941995 696.054988399 l 1
 749.071461717 696.054988399 l 1
 966.267981439 696.054988399 l 1
 986.106403712 686.135777262 l 2
 1009.36524362 674.164315545 1027.15141531 656.036102088 1038.4387935 631.409095128 c 2
 1046.64779582 613.964965197 l 1
 1046.64779582 415.238700696 l 1
 1046.64779582 216.512436195 l 1
 1036.04450116 195.647888631 l 2
 1015.52199536 154.260835267 929.327470998 91.3251508121 843.474988399 54.7266821346 c 0
 761.042923434 19.4963805104 689.898236659 5.47266821346 596.86287703 5.13062645012 c 0
 528.454524362 5.13062645012 505.195684455 7.86696055684 446.36450116 22.9167981439 c 0
 312.968213457 57.120974478 194.279721578 139.21099768 111.163573086 254.821113689 c 0
 84.4843155452 291.419582367 45.4915545244 369.063062645 31.125800464 413.186450116 c 0
 -24.9690487239 584.54937355 1.71020881671 778.145011601 102.270487239 927.275220418 c 0
 203.514849188 1077.77359629 363.590394432 1173.20324826 543.846403712 1189.96329466 c 0
EndSplineSet
Validated: 33
EndChar

StartChar: H
Encoding: 72 72 7
Width: 1117
VWidth: 0
Flags: HW
LayerCount: 2
Fore
SplineSet
64.9879350348 1164.65220418 m 0
 81.4059396752 1172.17712297 87.5626914153 1173.20324826 111.163573086 1172.51916473 c 0
 154.260835267 1170.80895592 187.438886311 1149.94440835 205.909141531 1112.31981439 c 2
 213.776102088 1096.24385151 l 1
 214.802227378 902.306171694 l 1
 215.486310905 708.026450116 l 1
 483.989095128 708.026450116 l 1
 752.149837587 708.026450116 l 1
 753.175962877 898.88575406 l 1
 754.202088167 1089.40301624 l 1
 765.489466357 1112.31981439 l 2
 784.985846868 1151.99665893 819.532064965 1173.20324826 864.681577726 1173.20324826 c 0
 905.384547564 1173.20324826 944.377308585 1147.89215777 961.479396752 1110.26756381 c 0
 967.636148492 1096.92793503 967.978190255 1078.11563805 967.978190255 597.546960557 c 2
 967.978190255 98.8500696056 l 1
 959.427146172 82.0900232019 l 2
 939.930765661 43.7813457077 905.0425058 22.5747563805 861.945243619 22.2327146172 c 0
 829.451276102 22.2327146172 804.482227378 33.5200928074 781.907470998 58.4891415313 c 0
 753.51800464 89.9569837587 754.54412993 82.4320649652 753.175962877 298.602459397 c 2
 752.149837587 489.119721578 l 1
 483.989095128 489.119721578 l 1
 215.486310905 489.119721578 l 1
 215.486310905 300.312668213 l 2
 215.486310905 187.096844548 214.118143852 106.374988399 212.065893271 99.1921113689 c 0
 199.068306265 51.9903480278 145.36774942 16.075962877 96.7978190255 22.2327146172 c 0
 69.4344779582 25.6531322506 38.6507192575 42.7552204176 23.2588399072 63.2777262181 c 0
 -1.71020881671 95.7716937355 -0.342041763341 60.199350348 0.684083526682 605.755962877 c 2
 1.71020881671 1096.24385151 l 1
 10.9453364269 1113.34593968 l 2
 22.5747563805 1135.57865429 41.7290951276 1153.70686775 64.9879350348 1164.65220418 c 0
EndSplineSet
Validated: 33
EndChar

StartChar: I
Encoding: 73 73 8
Width: 365
VWidth: 0
Flags: HW
LayerCount: 2
Fore
SplineSet
78.6696055684 1176.96570766 m 0
 83.4581902552 1178.67591647 98.8500696056 1179.36 112.873781903 1179.01795824 c 0
 155.62900232 1177.64979118 189.833178654 1155.41707657 207.277308585 1116.76635731 c 2
 215.486310905 1098.98018561 l 1
 214.802227378 601.651461717 l 1
 213.776102088 104.322737819 l 1
 205.225058005 87.9047331787 l 2
 194.963805104 67.7242691415 172.389048724 46.5176798144 151.182459397 36.5984686775 c 0
 138.868955916 30.7837587007 128.607703016 29.073549884 107.743155452 29.073549884 c 0
 82.7741067285 29.073549884 78.3275638051 30.4417169374 58.147099768 41.3870533643 c 0
 43.4393039443 49.2540139211 31.4678422274 59.173225058 23.6008816705 69.7765197216 c 0
 -1.71020881671 102.954570766 0 65.3299767981 0 605.755962877 c 0
 0 1085.29851508 0 1091.11322506 6.84083526682 1109.58348028 c 0
 18.4702552204 1140.70928074 45.8335962877 1166.36241299 78.6696055684 1176.96570766 c 0
EndSplineSet
Validated: 33
EndChar

StartChar: J
Encoding: 74 74 9
Width: 943
VWidth: 0
Flags: HW
LayerCount: 2
Fore
SplineSet
662.534895592 1176.62366589 m 0
 696.397030162 1184.83266821 750.928710938 1175.53125 774 1146 c 1
 799 1114 796 1141 794.44140625 730.946289062 c 0
 792.919018932 330.418204529 794.022945594 331.394861103 774.382552204 266.792575406 c 0
 732.99549884 130.659953596 629.014802784 41.0450116009 482.962969838 15.3918793503 c 0
 444.654292343 8.55104408353 352.303016241 6.15675174014 312.968213457 10.6032946636 c 0
 223.011229698 21.5486310905 137.500788863 65.6720185615 59.173225058 141.26324826 c 0
 11.2873781903 187.780928074 1.71020881671 204.540974478 1.71020881671 243.191693735 c 0
 1.71020881671 266.108491879 3.07837587007 271.923201856 13.6816705336 292.78774942 c 0
 34.2041763341 332.806635731 73.5389791183 355.039350348 117.662366589 351.618932715 c 0
 147.077958237 349.224640371 169.652714617 336.569095128 203.514849188 303.733085847 c 0
 269.186867749 240.455359629 304.07512761 225.063480278 381.034524362 225.405522042 c 0
 494.592389791 225.747563805 545.872070312 255.84765625 571.525390625 338.963867188 c 0
 576.314453125 355.381835938 576.34037123 397.110487239 578.050580046 726.8387471 c 2
 578.050580046 726.8387471 579 1015 579.760742188 1084.24414062 c 4
 579.845986367 1092.00322126 588.65387471 1115.05614849 588.65387471 1115.05614849 c 2
 603.361670534 1145.83990719 630.285663176 1168.80567015 662.534895592 1176.62366589 c 0
EndSplineSet
EndChar

StartChar: K
Encoding: 75 75 10
Width: 1090
VWidth: 0
Flags: HW
LayerCount: 2
Fore
SplineSet
82.7741067285 1174.91345708 m 0
 131.344037123 1188.59512761 185.728677494 1163.28403712 208.987517401 1116.42431555 c 2
 217.196519722 1099.66426914 l 1
 218.906728538 878.021206497 l 1
 220.616937355 656.036102088 l 1
 461.75638051 906.410672854 l 2
 683.741484919 1136.60477958 704.606032483 1157.46932715 724.78649652 1167.38853828 c 0
 766.173549884 1187.56900232 814.743480278 1179.36 847.237447796 1146.86603248 c 0
 883.151832947 1110.95164733 889.308584687 1048.35800464 860.577076566 1009.70728538 c 0
 853.394199536 1000.13011601 707.000324826 846.895406032 573.604037123 709.052575406 c 2
 536.321484919 670.743897912 l 1
 729.233039443 436.445290023 l 2
 834.923944316 307.15350348 925.907053364 193.937679814 931.379721578 184.360510441 c 0
 939.588723898 168.626589327 940.614849188 163.153921114 940.614849188 134.764454756 c 0
 940.614849188 107.059071926 939.246682135 99.8761948956 932.405846868 85.8524825986 c 0
 921.460510441 64.6458932715 893.75512761 39.6768445476 873.23262181 32.8360092807 c 0
 840.054570766 21.5486310905 799.693642691 27.3633410673 772.672343387 47.5438051044 c 0
 765.147424594 52.6744315545 675.874524362 158.70737819 574.28812065 282.52649652 c 0
 472.701716937 406.687656613 388.217401392 509.300185615 386.849234339 510.668352668 c 0
 385.481067285 512.036519722 347.172389791 474.753967517 301.680835267 427.552204176 c 2
 219.248770302 341.699721578 l 1
 218.222645012 223.011229698 l 1
 217.196519722 104.322737819 l 1
 207.961392111 86.8786078886 l 2
 196.331972158 64.6458932715 168.626589327 39.6768445476 148.104083527 32.8360092807 c 0
 129.97587007 26.6792575406 96.7978190255 25.6531322506 77.9855220418 30.7837587007 c 0
 48.5699303944 38.9927610209 15.049837587 72.5128538283 6.84083526682 101.928445476 c 0
 4.44654292343 110.479489559 3.42041763341 278.764037123 3.42041763341 605.07187935 c 0
 3.42041763341 1090.08709977 3.42041763341 1095.55976798 10.2612529002 1110.95164733 c 0
 24.9690487239 1143.78765661 49.5960556845 1165.67832947 82.7741067285 1174.91345708 c 0
EndSplineSet
Validated: 33
EndChar

StartChar: L
Encoding: 76 76 11
Width: 916
VWidth: 0
Flags: HW
LayerCount: 2
Fore
SplineSet
70.4606032483 1174.22937355 m 0
 92.6933178654 1181.07020882 121.082784223 1181.41225058 143.657540603 1174.57141531 c 0
 158.023294664 1170.46691415 166.574338747 1164.65220418 182.992343387 1148.23419954 c 0
 218.564686775 1112.66185615 215.486310905 1155.75911833 215.486310905 670.059814385 c 2
 215.486310905 246.612111369 l 1
 450.811044084 245.585986079 l 1
 685.793735499 244.559860789 l 1
 704.948074246 235.666774942 l 2
 728.206914153 224.721438515 748.729419954 205.225058005 758.64863109 184.360510441 c 0
 764.805382831 171.704965197 766.173549884 162.81187935 766.173549884 136.474663573 c 0
 766.173549884 108.427238979 764.805382831 101.586403712 757.280464037 86.5365661253 c 0
 747.019211137 65.6720185615 727.180788863 46.5176798144 704.948074246 36.2564269142 c 0
 689.214153132 29.073549884 688.530069606 29.073549884 384.796983759 29.073549884 c 2
 80.3798143852 29.073549884 l 1
 60.8834338747 38.6507192575 l 2
 39.6768445476 48.9119721578 21.5486310905 67.0401856148 9.57716937355 89.6149419954 c 2
 1.71020881671 104.322737819 l 1
 0.684083526682 598.573085847 l 2
 -0.342041763341 1164.99424594 -3.42041763341 1112.31981439 32.4939675174 1148.23419954 c 0
 47.8858468677 1163.62607889 57.8050580046 1170.46691415 70.4606032483 1174.22937355 c 0
EndSplineSet
Validated: 33
EndChar

StartChar: M
Encoding: 77 77 12
Width: 1288
VWidth: 0
Flags: HW
LayerCount: 2
Fore
SplineSet
74.223062645 1178.67591647 m 0
 92.0092343387 1184.83266821 128.94974478 1184.49062645 148.104083527 1177.99183295 c 0
 156.65512761 1175.25549884 170.336798144 1166.70445476 178.545800464 1159.86361949 c 0
 186.754802784 1152.68074246 276.36974478 1033.65020882 377.956148492 895.123294664 c 0
 479.542552204 756.59638051 563.684825986 643.380556845 564.710951276 643.380556845 c 0
 566.079118329 643.038515081 652.615684455 755.912296984 757.6225058 893.75512761 c 0
 862.629327146 1031.25591647 952.244269142 1148.23419954 956.690812065 1153.02278422 c 0
 973.450858469 1171.15099768 997.735823666 1181.07020882 1028.1775406 1182.78041763 c 0
 1052.80454756 1184.14858469 1058.27721578 1183.1224594 1077.08951276 1174.91345708 c 0
 1100.69039443 1164.31016241 1122.23902552 1143.10357309 1132.50027842 1120.87085847 c 0
 1138.65703016 1106.84714617 1138.99907193 1090.77118329 1138.99907193 608.834338747 c 2
 1138.99907193 111.163573086 l 1
 1130.79006961 94.0614849188 l 2
 1120.18677494 71.8287703016 1100.69039443 52.3323897912 1077.43155452 41.3870533643 c 0
 1062.38171694 34.5462180974 1053.14658933 32.8360092807 1032.96612529 32.4939675174 c 0
 1000.47215777 32.4939675174 975.503109049 43.7813457077 952.928352668 68.7503944316 c 0
 923.512761021 101.586403712 925.565011601 76.9593967517 923.512761021 434.05099768 c 2
 921.802552204 750.097587007 l 1
 781.907470998 566.079118329 l 2
 704.606032483 465.176798144 636.881763341 378.982273782 631.409095128 374.535730858 c 0
 610.544547564 359.143851508 597.204918794 354.697308585 569.1574942 352.987099768 c 0
 544.188445476 351.618932715 539.057819026 352.645058005 520.245522042 360.854060325 c 0
 508.274060325 366.326728538 493.908306265 376.245939675 486.383387471 384.454941995 c 0
 479.542552204 391.979860789 416.606867749 475.780092807 347.172389791 570.525661253 c 2
 220.616937355 742.572668213 l 1
 218.906728538 426.86812065 l 1
 217.196519722 111.163573086 l 1
 209.671600928 95.7716937355 l 2
 189.491136891 54.7266821346 153.57675174 32.4939675174 109.453364269 32.8360092807 c 0
 64.9879350348 33.1780510441 30.4417169374 55.7528074246 11.6294199536 96.7978190255 c 2
 1.71020881671 118.004408353 l 1
 1.71020881671 608.834338747 l 1
 1.71020881671 1099.66426914 l 1
 9.57716937355 1116.42431555 l 2
 23.9429234339 1147.89215777 45.149512761 1168.07262181 74.223062645 1178.67591647 c 0
EndSplineSet
Validated: 33
EndChar

StartChar: N
Encoding: 78 78 13
Width: 1159
VWidth: 0
Flags: HW
LayerCount: 2
Fore
SplineSet
76.6173549884 1179.70204176 m 0
 105.348863109 1188.25308585 145.709791183 1182.09633411 170.336798144 1165.3362877 c 0
 176.151508121 1161.23178654 318.782923434 996.025614849 486.725429234 797.983433875 c 2
 791.826682135 438.497540603 l 1
 793.536890951 770.620092807 l 1
 795.247099768 1103.08468677 l 1
 804.824269142 1122.58106729 l 2
 822.610440835 1159.17953596 854.762366589 1180.38612529 896.149419954 1182.78041763 c 0
 916.671925754 1183.80654292 925.565011601 1182.78041763 941.298932715 1176.62366589 c 0
 965.583897912 1167.73058005 989.184779582 1145.15582367 1000.47215777 1120.87085847 c 2
 1009.02320186 1103.08468677 l 1
 1009.02320186 607.12412993 l 2
 1009.02320186 125.187285383 1008.68116009 110.821531323 1002.18236659 96.7978190255 c 0
 992.605197216 75.5912296984 967.294106729 49.9380974478 946.429559165 40.7029698376 c 0
 933.089930394 34.5462180974 922.144593968 32.8360092807 902.99025522 32.4939675174 c 0
 880.757540603 32.4939675174 874.2587471 33.8621345708 854.762366589 43.4393039443 c 0
 832.529651972 54.3846403712 830.477401392 56.7789327146 550.345197216 386.849234339 c 0
 395.400278422 569.499535963 257.899489559 731.96937355 244.559860789 747.703294664 c 2
 220.616937355 776.092761021 l 1
 218.906728538 447.048584687 l 2
 217.538561485 174.783341067 216.170394432 115.952157773 212.407935035 106.032946636 c 0
 193.253596288 58.8311832947 156.997169374 33.1780510441 109.111322506 32.8360092807 c 0
 85.8524825986 32.4939675174 80.7218561485 33.8621345708 59.5152668213 44.4654292343 c 0
 42.7552204176 53.0164733179 32.4939675174 61.2254756381 23.6008816705 73.196937355 c 0
 -1.71020881671 106.717030162 0 68.7503944316 0 606.782088167 c 0
 0 1140.02519722 -1.36816705336 1109.58348028 21.5486310905 1139.68315545 c 0
 33.8621345708 1156.10116009 59.8573085847 1174.91345708 76.6173549884 1179.70204176 c 0
EndSplineSet
Validated: 33
EndChar

StartChar: O
Encoding: 79 79 14
Width: 1367
VWidth: 0
Flags: HW
LayerCount: 2
Fore
SplineSet
521.613689095 1212.53805104 m 0
 567.789327146 1220.06296984 681.347192575 1217.32663573 726.8387471 1207.40742459 c 0
 920.434385151 1166.36241299 1075.37930394 1045.9637123 1159.17953596 872.20649652 c 0
 1181.75429234 825.004733179 1196.80412993 781.565429234 1207.74946636 731.96937355 c 0
 1218.01071926 685.109651972 1220.74705336 566.763201856 1212.53805104 514.772853828 c 0
 1191.67350348 382.060649652 1131.13211137 265.082366589 1034.33429234 170.678839907 c 0
 942.325058005 81.4059396752 829.451276102 24.9690487239 702.895823666 5.13062645012 c 0
 650.563433875 -3.07837587007 535.979443155 -0.342041763341 488.093596288 9.91921113689 c 0
 243.875777262 63.2777262181 62.9356844548 244.901902552 11.2873781903 488.777679814 c 0
 3.07837587007 527.428399072 2.05225058005 539.399860789 2.05225058005 603.703712297 c 0
 1.71020881671 689.898236659 8.20900232019 732.653457077 33.1780510441 807.218561485 c 0
 46.5176798144 846.895406032 86.5365661253 925.222969838 112.189698376 961.137354988 c 0
 138.526914153 998.077865429 189.149095128 1052.4625058 224.037354988 1080.85197216 c 0
 307.495545244 1148.91828306 409.766032483 1194.40983759 521.613689095 1212.53805104 c 0
686.819860789 993.289280742 m 0
 653.983851508 1000.13011601 593.100417633 1002.52440835 562.658700696 998.419907193 c 0
 474.411925754 986.448445476 394.032111369 947.113642691 334.174802784 886.914292343 c 0
 275.34361949 827.399025522 241.823526682 765.489466357 225.405522042 686.135777262 c 0
 216.170394432 642.354431555 215.486310905 578.734663573 223.353271462 536.663526682 c 0
 250.716612529 394.716194896 349.224640371 281.50037123 485.015220418 236.008816705 c 0
 739.836334107 150.49837587 1002.18236659 339.647470998 1002.18236659 609.17638051 c 0
 1002.18236659 794.905058005 870.496287703 955.322645012 686.819860789 993.289280742 c 0
EndSplineSet
Validated: 33
EndChar

StartChar: P
Encoding: 80 80 15
Width: 1052
VWidth: 0
Flags: HW
LayerCount: 2
Fore
SplineSet
70.802734375 1175.96582031 m 0
 86.5361328125 1182.12207031 98.1659860789 1183.1224594 324.939675174 1182.43837587 c 2
 562.658700696 1181.75429234 l 1
 596.178793503 1172.51916473 l 2
 740.862459397 1132.84232019 853.394199536 1021.6787471 891.70287703 880.757540603 c 0
 900.595962877 848.605614849 900.93800464 842.448863109 900.93800464 774.724593968 c 0
 900.93800464 696.054988399 898.543712297 682.715359629 875.968955916 623.884176334 c 0
 831.161484919 507.589976798 722.392204176 411.476241299 600.283294664 380.008399072 c 0
 553.765614849 367.694895592 526.402273782 366.326728538 370.431229698 365.984686775 c 2
 219.248770302 365.984686775 l 1
 218.222645012 238.403109049 l 1
 218.222645012 238.403109049 221 161 217.196519722 111.163573086 c 24
 217 103 207.9609375 82.376953125 207.9609375 82.376953125 c 2
 186.754882812 42.7001953125 152.892668213 32.4939675174 109.453364269 32.8360092807 c 0
 64.9879350348 33.1780510441 31.44140625 42.7529296875 12.6298828125 83.7978515625 c 2
 12.6298828125 83.7978515625 2.05078125 111 1.7099609375 122.004882812 c 0
 -4.20703125 312.944335938 1.71020881671 608.834338747 1.71020881671 608.834338747 c 1
 1.71020881671 608.834338747 -4.6630859375 904.017578125 0.7099609375 1095.6640625 c 0
 1 1106 10 1128 10 1128 c 2
 22.6552734375 1153.99511719 44.77734375 1165.78222656 70.802734375 1175.96582031 c 0
557.84375 959.033203125 m 0
 557.84375 959.033203125 523.98455065 968.647732409 513.875 969.267578125 c 0
 453 973 375.561523438 972 375.561523438 972 c 5
 218.90625 972 l 5
 218.906728538 776.776844548 l 1
 218.906728538 584.891415313 l 1
 369.405104408 584.891415313 l 2
 465.176798144 584.891415313 526.060546875 584.259765625 537.689453125 586.654296875 c 0
 569.841796875 593.15234375 603.703712297 613.964965197 629.014802784 638.934013921 c 0
 657.062227378 666.639396752 671.770023202 691.950487239 680.663109049 727.180788863 c 0
 697.423155452 792.168723898 681.347192575 856.130533643 635.855638051 904.358422274 c 0
 611.22863109 931.037679814 591.022460938 947.061523438 557.84375 959.033203125 c 0
EndSplineSet
EndChar

StartChar: Q
Encoding: 81 81 16
Width: 1367
VWidth: 0
Flags: HW
LayerCount: 2
Fore
SplineSet
542.136194896 1215.27438515 m 0
 569.1574942 1218.69480278 661.850812065 1216.98459397 693.318654292 1212.53805104 c 0
 949.849976798 1176.28162413 1151.99665893 986.106403712 1208.09150812 728.548955916 c 0
 1214.93234339 696.739071926 1215.95846868 683.399443155 1215.95846868 608.834338747 c 0
 1215.95846868 534.269234339 1214.93234339 520.929605568 1208.09150812 489.119721578 c 0
 1190.98941995 410.792157773 1158.15341067 331.438468677 1117.10839907 270.555034803 c 2
 1097.95406032 241.823526682 l 1
 1132.84232019 205.567099768 l 2
 1175.93958237 160.75962877 1184.83266821 142.973457077 1184.83266821 106.032946636 c 0
 1184.83266821 75.249187935 1177.30774942 55.7528074246 1156.10116009 32.8360092807 c 0
 1133.86844548 8.55104408353 1113.00389791 0 1077.77359629 0 c 0
 1036.72858469 0.342041763341 1026.46733179 5.8147099768 977.897401392 53.3585150812 c 2
 937.878515081 93.0353596288 l 1
 907.778839907 75.9332714617 l 2
 845.185197216 40.7029698376 762.753132251 12.6555452436 692.292529002 3.42041763341 c 0
 672.454106729 0.684083526682 636.197679814 -0.342041763341 591.390208817 0.684083526682 c 0
 530.848816705 2.05225058005 516.141020882 3.42041763341 480.910719258 11.6294199536 c 0
 405.319489559 29.073549884 337.595220418 57.4630162413 277.737911833 96.7978190255 c 0
 125.187285383 196.674013921 25.6531322506 355.723433875 3.42041763341 534.953317865 c 0
 -2.73633410673 583.181206497 1.02612529002 682.373317865 10.2612529002 726.8387471 c 0
 27.0212993039 805.508352668 59.8573085847 882.809791183 106.032946636 951.902227378 c 0
 132.02812065 990.894988399 191.543387471 1055.88292343 227.115730858 1083.93034803 c 0
 318.098839907 1155.41707657 425.499953596 1200.56658933 542.136194896 1215.27438515 c 0
682.715359629 993.631322506 m 0
 654.325893271 999.103990719 598.91512761 1002.52440835 576.34037123 1000.13011601 c 0
 432.340788863 984.396194896 316.046589327 903.332296984 254.821113689 775.750719258 c 0
 153.57675174 564.368909513 260.977865429 311.25800464 484.331136891 236.008816705 c 0
 571.20974478 206.593225058 679.979025522 210.013642691 757.280464037 244.217819026 c 2
 777.802969838 253.452946636 l 1
 704.263990719 327.676009281 l 2
 618.411508121 414.212575406 613.964965197 420.71136891 616.359257541 464.834756381 c 0
 617.727424594 495.960556845 626.278468677 515.798979118 647.143016241 536.663526682 c 0
 670.401856148 559.580324826 687.503944316 566.079118329 723.418329466 566.079118329 c 0
 769.251925754 566.079118329 773.698468677 563.000742459 862.629327146 475.096009281 c 0
 904.358422274 433.708955916 939.588723898 400.188863109 940.956890951 400.188863109 c 0
 942.667099768 400.188863109 950.876102088 413.528491879 959.085104408 430.288538283 c 0
 996.709698376 504.853642691 1010.04932715 589.68 997.051740139 670.401856148 c 0
 983.712111369 751.807795824 946.087517401 825.346774942 887.940417633 884.177958237 c 0
 830.135359629 941.983016241 762.069048724 978.581484919 682.715359629 993.631322506 c 0
EndSplineSet
Validated: 33
EndChar

StartChar: R
Encoding: 82 82 17
Width: 1090
VWidth: 0
Flags: HW
LayerCount: 2
Fore
SplineSet
83.8002320186 1183.80654292 m 0
 89.6149419954 1185.17470998 205.909141531 1186.20083527 342.383805104 1186.54287703 c 0
 551.029280742 1186.88491879 595.83675174 1186.20083527 621.147842227 1181.75429234 c 0
 773.014385151 1155.41707657 889.308584687 1049.38412993 931.037679814 897.85962877 c 0
 939.930765661 866.391786543 943.351183295 780.197262181 937.194431555 742.914709977 c 0
 918.724176334 628.330719258 845.527238979 525.376148492 741.546542923 468.597215777 c 2
 725.81262181 459.70412993 l 1
 825.004733179 331.780510441 l 2
 879.731415313 261.319907193 927.959303944 195.989930394 932.405846868 186.412761021 c 0
 942.325058005 165.548213457 943.351183295 129.291786543 935.142180974 105.006821346 c 0
 927.959303944 84.1422737819 902.99025522 56.7789327146 881.099582367 45.4915545244 c 0
 846.553364269 28.047424594 799.693642691 32.1519257541 769.251925754 55.7528074246 c 0
 761.042923434 61.9095591647 697.765197216 140.921206497 617.385382831 244.559860789 c 2
 479.884593968 423 l 5
 349.56640625 423 l 5
 219.249023438 423 l 5
 218.222645012 270.897076566 l 1
 217.196519722 117.320324826 l 1
 205.225058005 93.7194431555 l 2
 163.83800464 12.3135034803 50.2801392111 15.3918793503 10.6032946636 99.1921113689 c 2
 1.71020881671 118.004408353 l 1
 1.71020881671 610.544547564 l 1
 1.71020881671 1103.08468677 l 1
 10.6032946636 1121.89698376 l 2
 24.9690487239 1151.99665893 54.0425986079 1176.28162413 83.8002320186 1183.80654292 c 0
609.860464037 961.137354988 m 0
 588.65387471 967.636148492 578.050580046 967.978190255 403.267238979 967.978190255 c 2
 218.906728538 967.978190255 l 1
 218.906728538 803.798143852 l 1
 218.906728538 639.618097448 l 1
 396.768445476 639.618097448 l 2
 513.062645012 639.618097448 580.44487239 640.986264501 592.416334107 643.380556845 c 0
 636.197679814 652.615684455 678.268816705 682.373317865 701.185614849 720.339953596 c 0
 755.57025522 810.638979118 710.078700696 930.011554524 609.860464037 961.137354988 c 0
EndSplineSet
EndChar

StartChar: S
Encoding: 83 83 18
Width: 1046
VWidth: 0
Flags: HW
LayerCount: 2
Fore
SplineSet
347.172389791 1213.9062181 m 0
 381.376566125 1218.01071926 475.438051044 1218.35276102 509.642227378 1214.24825986 c 0
 551.713364269 1209.11763341 618.069466357 1192.01554524 665.271229698 1174.22937355 c 0
 728.89099768 1149.94440835 794.220974478 1117.7924826 811.323062645 1102.05856148 c 0
 857.498700696 1059.30334107 857.840742459 986.448445476 812.007146172 944.035266821 c 0
 789.090348028 922.828677494 769.593967517 915.303758701 738.810208817 915.303758701 c 0
 714.525243619 915.303758701 710.762784223 916.329883991 670.401856148 935.142180974 c 0
 577.36649652 978.581484919 530.848816705 993.289280742 467.913132251 999.103990719 c 0
 423.447703016 1003.20849188 366.668770302 999.103990719 334.858886311 989.868863109 c 0
 280.816287703 973.792900232 258.241531323 944.377308585 254.137030162 883.49387471 c 0
 251.400696056 846.553364269 256.531322506 828.767192575 276.36974478 806.876519722 c 0
 304.417169374 775.408677494 359.827935035 754.202088167 494.250348028 723.418329466 c 0
 699.133364269 676.216566125 817.479814385 603.01962877 870.838329466 490.829930394 c 0
 894.097169374 441.575916473 896.83350348 426.184037123 895.465336427 350.934849188 c 0
 894.439211137 285.946914153 894.439211137 285.262830626 882.125707657 250.374570766 c 0
 866.391786543 206.251183295 843.132946636 166.91638051 812.349187935 134.08037123 c 0
 780.197262181 99.5341531323 751.123712297 78.3275638051 706.316241299 56.0948491879 c 0
 637.907888631 22.5747563805 574.972204176 9.23512761021 482.278886311 9.23512761021 c 0
 336.227053364 9.23512761021 213.776102088 45.8335962877 75.5912296984 131.686078886 c 0
 33.1780510441 158.023294664 22.9167981439 167.600464037 10.2612529002 192.227470998 c 0
 1.71020881671 209.671600928 0 217.196519722 0 237.719025522 c 0
 0 269.528909513 7.18287703016 290.051415313 25.9951740139 310.915962877 c 0
 54.3846403712 342.725846868 99.8761948956 356.065475638 136.816705336 344.094013921 c 0
 146.051832947 341.015638051 170.678839907 328.360092807 190.859303944 315.704547564 c 0
 258.583573086 273.633410673 323.913549884 246.612111369 388.901484919 233.614524362 c 0
 432.340788863 225.063480278 532.901067285 225.063480278 566.079118329 233.956566125 c 0
 630.040928074 250.716612529 666.639396752 282.184454756 679.294941995 331.438468677 c 0
 701.527656613 418.659118329 630.382969838 468.939257541 417.290951276 518.193271462 c 0
 272.265243619 551.371322506 192.911554524 586.259582367 132.370162413 643.038515081 c 0
 66.3561020882 704.606032483 36.5984686775 774.724593968 36.5984686775 868.786078886 c 0
 36.5984686775 1042.2012529 126.213410673 1160.54770302 289.367331787 1202.27679814 c 0
 308.17962877 1207.06538283 334.174802784 1212.19600928 347.172389791 1213.9062181 c 0
EndSplineSet
Validated: 33
EndChar

StartChar: T
Encoding: 84 84 19
Width: 1148
VWidth: 0
Flags: HW
LayerCount: 2
Fore
SplineSet
78.6696055684 1166.70445476 m 0
 83.4581902552 1168.07262181 275.001577726 1169.0987471 504.511600928 1168.75670534 c 2
 921.802552204 1168.07262181 l 1
 937.878515081 1160.54770302 l 2
 958.401020882 1151.31257541 981.317819026 1128.0537355 991.237030162 1107.5312297 c 0
 1002.52440835 1082.90422274 1002.18236659 1037.41266821 989.868863109 1013.46974478 c 0
 979.607610209 992.263155452 959.769187935 973.450858469 935.826264501 962.505522042 c 2
 918.382134571 954.296519722 l 1
 763.779257541 954.296519722 l 1
 608.834338747 954.296519722 l 1
 608.834338747 530.164733179 l 2
 608.834338747 112.189698376 608.834338747 106.032946636 601.99350348 87.5626914153 c 0
 592.75837587 62.9356844548 571.893828306 40.0188863109 547.950904872 28.3894663573 c 0
 531.190858469 20.1804640371 524.350023202 18.8122969838 499.380974478 18.8122969838 c 0
 474.411925754 18.8122969838 467.913132251 20.1804640371 452.863294664 28.047424594 c 0
 429.94649652 40.0188863109 405.661531323 67.3822273782 397.794570766 89.9569837587 c 0
 391.979860789 106.717030162 391.637819026 130.317911833 391.637819026 530.164733179 c 2
 391.637819026 952.586310905 l 1
 234.298607889 954.296519722 l 2
 78.3275638051 956.006728538 76.9593967517 956.006728538 60.8834338747 963.873689095 c 0
 40.3609280742 974.134941995 19.8384222738 994.657447796 9.57716937355 1015.1799536 c 0
 -1.71020881671 1038.4387935 -1.71020881671 1085.98259861 9.91921113689 1108.21531323 c 0
 24.2849651972 1135.92069606 49.9380974478 1157.81136891 78.6696055684 1166.70445476 c 0
EndSplineSet
Validated: 33
EndChar

StartChar: U
Encoding: 85 85 20
Width: 1148
VWidth: 0
Flags: HW
LayerCount: 2
Fore
SplineSet
76.6173549884 1164.99424594 m 0
 127.92361949 1181.07020882 184.360510441 1156.10116009 208.645475638 1106.50510441 c 2
 217.196519722 1089.40301624 l 1
 218.906728538 752.49187935 l 1
 218.906728538 752.49187935 217 547 220.616937355 415.580742459 c 28
 221 406 229.510023202 392.663944316 229.510023202 392.663944316 c 6
 266.450533643 297.576334107 358.801809745 231.220232019 470.649466357 218.564686775 c 0
 601.99350348 204.198932715 738.12612529 284.920788863 777.460928074 400.188863109 c 0
 784.985846868 422.421577726 784.985846868 423.105661253 786.696055684 757.6225058 c 2
 788.406264501 1092.82343387 l 1
 798.667517401 1111.2936891 l 2
 835.950069606 1178.33387471 922.828677494 1189.6212529 974.476983759 1133.86844548 c 0
 1000.47215777 1105.47897912 998.761948956 1134.552529 998.761948956 742.914709977 c 2
 998.761948956 390.953735499 l 1
 990.552946636 357.775684455 l 2
 965.241856148 258.583573086 895.465336427 159.73350348 805.508352668 96.1137354988 c 0
 748.729419954 56.0948491879 677.242691415 25.3110904872 604.04575406 9.57716937355 c 0
 553.765614849 -1.36816705336 448.074709977 -1.36816705336 398.478654292 9.57716937355 c 0
 290.73549884 33.5200928074 209.329559165 77.6434802784 134.764454756 151.866542923 c 0
 56.0948491879 230.878190255 12.997587007 319.124965197 3.07837587007 422.421577726 c 0
 1.02612529002 446.706542923 0 571.893828306 0.684083526682 773.014385151 c 0
 1.71020881671 1065.46009281 2.05225058005 1087.0087239 7.86696055684 1099.66426914 c 0
 22.5747563805 1132.84232019 46.8597215777 1155.75911833 76.6173549884 1164.99424594 c 0
EndSplineSet
EndChar

StartChar: V
Encoding: 86 86 21
Width: 1230
VWidth: 0
Flags: HW
LayerCount: 2
Fore
SplineSet
78.6696055684 1166.70445476 m 0
 83.4581902552 1168.41466357 98.8500696056 1169.0987471 112.873781903 1168.41466357 c 0
 132.370162413 1167.73058005 142.631415313 1165.3362877 155.971044084 1158.49545244 c 0
 187.096844548 1142.76153132 198.384222738 1125.65944316 245.243944316 1024.41508121 c 0
 388.217401392 714.525243619 538.373735499 391.295777262 540.425986079 388.901484919 c 0
 541.794153132 387.533317865 618.753549884 550.345197216 711.788909513 751.123712297 c 0
 895.465336427 1147.89215777 891.360835267 1139.68315545 928.301345708 1158.49545244 c 0
 979.949651972 1184.83266821 1046.98983759 1162.25791183 1072.30092807 1109.92552204 c 0
 1080.85197216 1092.82343387 1081.53605568 1088.71893271 1080.16788863 1057.93517401 c 2
 1078.79972158 1024.41508121 l 1
 856.814617169 545.898654292 l 2
 685.793735499 177.861716937 631.751136891 64.3038515081 621.489883991 52.6744315545 c 0
 593.78450116 21.2065893271 544.530487239 8.89308584687 504.853642691 23.9429234339 c 0
 478.174385151 34.2041763341 454.57350348 56.4368909513 441.575916473 83.4581902552 c 0
 436.445290023 94.7455684455 378.982273782 218.222645012 314.678422274 357.433642691 c 0
 250.374570766 496.644640371 196.331972158 612.254756381 194.963805104 613.964965197 c 0
 193.595638051 616.017215777 149.47225058 710.420742459 97.1398607889 824.320649652 c 0
 2.05225058005 1030.91387471 1.71020881671 1031.25591647 0.684083526682 1057.59313225 c 0
 -0.684083526682 1080.16788863 0.342041763341 1086.32464037 8.20900232019 1103.7687703 c 0
 22.2327146172 1134.21048724 46.8597215777 1156.44320186 78.6696055684 1166.70445476 c 0
EndSplineSet
Validated: 33
EndChar

StartChar: W
Encoding: 87 87 22
Width: 1798
VWidth: 0
Flags: HW
LayerCount: 2
Fore
SplineSet
68.4083526682 1162.5999536 m 0
 83.1161484919 1168.41466357 92.6933178654 1169.44078886 112.873781903 1168.75670534 c 0
 145.025707657 1167.04649652 167.258422274 1156.78524362 188.807053364 1132.50027842 c 0
 205.909141531 1113.34593968 192.227470998 1149.60236659 368.036937355 661.166728538 c 0
 414.896658933 530.848816705 453.889419954 424.131786543 454.915545244 424.131786543 c 0
 455.941670534 424.131786543 522.981856148 575.998329466 603.361670534 762.069048724 c 0
 684.083526682 947.797726218 753.51800464 1105.82102088 757.964547564 1113.34593968 c 0
 797.299350348 1183.1224594 896.149419954 1188.59512761 941.298932715 1123.60719258 c 0
 947.113642691 1115.05614849 996.709698376 982.343944316 1070.93276102 776.434802784 c 0
 1136.94682135 593.100417633 1191.33146172 442.602041763 1191.67350348 441.917958237 c 0
 1192.69962877 440.891832947 1191.67350348 438.15549884 1337.38329466 824.320649652 c 0
 1396.21447796 979.265568445 1446.15257541 1110.26756381 1448.54686775 1115.05614849 c 0
 1456.07178654 1129.42190255 1476.93633411 1148.91828306 1495.74863109 1158.8374942 c 0
 1511.14051044 1166.70445476 1517.63930394 1168.07262181 1542.60835267 1168.07262181 c 0
 1567.57740139 1168.07262181 1574.41823666 1166.70445476 1591.17828306 1158.49545244 c 0
 1612.72691415 1147.89215777 1632.22329466 1128.0537355 1642.1425058 1106.50510441 c 0
 1646.93109049 1096.58589327 1648.6412993 1084.61443155 1648.6412993 1062.7237587 c 2
 1648.6412993 1032.96612529 l 1
 1469.06937355 557.186032483 l 2
 1370.21930394 295.182041763 1287.10315545 76.9593967517 1284.02477958 71.4867285383 c 0
 1276.49986079 56.4368909513 1257.00348028 38.6507192575 1237.165058 28.7315081206 c 0
 1190.98941995 5.13062645012 1130.79006961 20.1804640371 1101.71651972 62.9356844548 c 0
 1095.55976798 71.8287703016 1045.9637123 204.540974478 967.978190255 420.71136891 c 0
 899.91187935 609.860464037 843.817030162 764.805382831 843.474988399 765.489466357 c 0
 842.790904872 765.831508121 777.460928074 616.359257541 697.765197216 433.708955916 c 0
 618.411508121 250.716612529 548.977030162 91.3251508121 543.504361949 80.0377726218 c 0
 532.216983759 56.0948491879 513.062645012 36.9405104408 489.461763341 25.9951740139 c 0
 477.490301624 20.5225058005 467.229048724 18.8122969838 444.654292343 18.8122969838 c 0
 419.685243619 18.8122969838 413.186450116 20.1804640371 397.794570766 28.047424594 c 0
 378.982273782 37.9666357309 358.117726218 57.4630162413 350.592807425 71.8287703016 c 0
 348.198515081 76.6173549884 268.844825986 295.182041763 174.099257541 557.528074246 c 0
 -16.075962877 1085.29851508 -8.20900232019 1058.9612993 7.18287703016 1099.66426914 c 0
 17.1020881671 1126.00148492 42.7552204176 1152.3387007 68.4083526682 1162.5999536 c 0
EndSplineSet
Validated: 33
EndChar

StartChar: X
Encoding: 88 88 23
Width: 1131
VWidth: 0
Flags: HW
LayerCount: 2
Fore
SplineSet
72.8548955916 1143.10357309 m 0
 110.479489559 1156.44320186 156.997169374 1145.15582367 185.386635731 1115.74023202 c 0
 193.937679814 1106.84714617 266.108491879 1020.31058005 345.462180974 923.512761021 c 0
 424.81587007 826.714941995 491.171972158 747.3612529 492.540139211 747.3612529 c 0
 494.250348028 747.3612529 560.264408353 826.714941995 639.618097448 923.512761021 c 0
 718.971786543 1020.31058005 790.800556845 1106.84714617 799.693642691 1115.74023202 c 0
 821.242273782 1137.97294664 843.474988399 1147.20807425 875.626914153 1147.55011601 c 0
 906.410672854 1147.55011601 931.037679814 1137.28886311 952.244269142 1116.42431555 c 0
 973.792900232 1094.87568445 981.659860789 1074.01113689 981.659860789 1039.46491879 c 0
 981.659860789 1013.46974478 980.291693735 1007.6550348 972.424733179 992.263155452 c 0
 966.952064965 982.685986079 891.70287703 887.940417633 804.824269142 781.907470998 c 0
 717.60361949 675.874524362 643.380556845 585.57549884 639.960139211 580.786914153 c 2
 633.119303944 572.23587007 l 1
 659.456519722 540.083944316 l 2
 673.822273782 522.297772622 748.729419954 430.97262181 826.030858469 336.911136891 c 0
 902.99025522 242.849651972 969.688399072 159.049419954 974.134941995 150.840417633 c 0
 984.054153132 130.659953596 984.738236659 81.0638979118 975.161067285 59.5152668213 c 0
 966.267981439 40.0188863109 949.165893271 21.5486310905 928.985429234 9.91921113689 c 0
 912.909466357 0.684083526682 909.147006961 0 875.626914153 0 c 0
 818.163897912 0 829.451276102 -10.2612529002 647.827099768 208.645475638 c 0
 562.658700696 310.915962877 491.856055684 395.058236659 490.145846868 395.742320186 c 0
 488.777679814 396.084361949 422.079535963 316.38863109 342.041763341 218.564686775 c 0
 262.003990719 120.740742459 190.859303944 34.5462180974 183.334385151 27.3633410673 c 0
 161.78575406 5.47266821346 146.735916473 0 107.401113689 0 c 0
 76.2753132251 0 72.170812065 0.684083526682 56.0948491879 10.2612529002 c 0
 5.47266821346 38.9927610209 -14.023712297 100.218236659 11.2873781903 150.49837587 c 0
 16.7600464037 161.78575406 88.5888167053 252.084779582 186.070719258 370.773271462 c 2
 351.618932715 572.23587007 l 1
 282.52649652 656.378143852 l 2
 61.2254756381 925.565011601 16.4180046404 980.975777262 9.91921113689 994.657447796 c 0
 -0.342041763341 1015.52199536 -2.39429234339 1050.75229698 4.78858468677 1073.32705336 c 0
 16.075962877 1106.50510441 40.0188863109 1131.47415313 72.8548955916 1143.10357309 c 0
EndSplineSet
Validated: 33
EndChar

StartChar: Y
Encoding: 89 89 24
Width: 1230
VWidth: 0
Flags: HW
LayerCount: 2
Fore
SplineSet
83.8002320186 1146.18194896 m 0
 115.952157773 1154.73299304 161.101670534 1141.05132251 185.044593968 1116.08227378 c 0
 191.885429234 1108.89939675 273.29136891 998.419907193 365.984686775 870.496287703 c 0
 458.67800464 742.572668213 536.321484919 635.855638051 538.715777262 633.461345708 c 0
 542.136194896 629.698886311 576.34037123 674.506357309 719.313828306 871.522412993 c 0
 816.453689095 1004.9187007 900.595962877 1118.47656613 907.094756381 1123.60719258 c 0
 958.401020882 1166.70445476 1042.54329466 1149.60236659 1071.95888631 1090.42914153 c 0
 1079.4838051 1075.03726218 1080.85197216 1068.19642691 1080.85197216 1040.14900232 c 0
 1080.85197216 1014.49587007 1079.4838051 1004.9187007 1074.01113689 993.973364269 c 0
 1070.24867749 986.106403712 973.108816705 850.999907193 858.524825986 693.318654292 c 2
 649.879350348 406.687656613 l 1
 649.879350348 246.612111369 l 2
 649.879350348 63.6197679814 649.879350348 63.2777262181 623.200092807 33.5200928074 c 0
 599.599211137 7.5249187935 581.813039443 0 542.136194896 0 c 0
 514.430812065 0 506.905893271 1.36816705336 493.224222738 8.20900232019 c 0
 473.727842227 18.1282134571 455.257587007 37.2825522042 444.31225058 58.147099768 c 2
 436.10324826 73.5389791183 l 1
 435.07712297 240.113317865 l 1
 434.05099768 407.029698376 l 1
 225.747563805 693.318654292 l 2
 110.821531323 850.999907193 13.6816705336 986.790487239 9.57716937355 995.341531323 c 0
 3.07837587007 1007.6550348 1.71020881671 1016.54812065 1.71020881671 1039.80696056 c 0
 1.71020881671 1064.77600928 3.07837587007 1071.61684455 11.2873781903 1088.37689095 c 0
 24.9690487239 1116.08227378 52.3323897912 1137.97294664 83.8002320186 1146.18194896 c 0
EndSplineSet
Validated: 33
EndChar

StartChar: Z
Encoding: 90 90 25
Width: 1076
VWidth: 0
Flags: HW
LayerCount: 2
Fore
SplineSet
78.6696055684 1144.47174014 m 0
 90.299025522 1147.89215777 183.33448136 1148.68526542 465.518839907 1148.91828306 c 0
 879.731415313 1149.26032483 859.1640625 1149.96875 892 1125 c 0
 901.235351562 1118.15917969 909.43846711 1105.99823333 914.961716937 1096.58589327 c 0
 920 1088 924.113015555 1078.09955479 925.222969838 1039.80696056 c 0
 926 1013 924.538886311 999.103990719 916.329883991 986.448445476 c 0
 911.541299304 979.265568445 777.118886311 802.429976798 617.385382831 593.442459397 c 2
 327.67578125 212.776367188 l 1
 590.364083527 212.065893271 l 1
 853.394199536 210.355684455 l 1
 868.10199536 202.488723898 l 2
 889.992668213 190.859303944 908.462923434 172.731090487 918.040092807 152.892668213 c 0
 925.565011601 138.18487239 926.933178654 131.00199536 926.933178654 104.664779582 c 0
 926.591136891 58.8311832947 911.541299304 31.4678422274 874.2587471 9.91921113689 c 2
 856.814617169 0 l 1
 465.518839907 0 l 1
 73.8810208817 0 l 1
 58.4891415313 7.5249187935 l 2
 39.6768445476 16.4180046404 19.8384222738 35.9143851508 9.57716937355 55.4107656613 c 0
 -1.02612529002 75.249187935 -2.05225058005 132.02812065 8.20900232019 150.156334107 c 0
 11.6294199536 156.65512761 146.051832947 334.174802784 306.469419954 544.530487239 c 0
 467.229048724 754.886171694 598.573242188 930.6171875 598.573242188 931.643554688 c 4
 598.573242188 932.327148438 482.62109375 931.6953125 341.357421875 932.038085938 c 2
 83.8002320186 932.063805104 l 1
 64.9879350348 940.956890951 l 2
 22.9167981439 960.453271462 3.07837587007 989.868863109 0.684083526682 1035.01837587 c 0
 -0.684083526682 1059.98742459 0.342041763341 1065.46009281 8.20900232019 1082.90422274 c 0
 22.9167981439 1115.05614849 46.8597215777 1136.26273782 78.6696055684 1144.47174014 c 0
EndSplineSet
EndChar

StartChar: percent
Encoding: 37 37 26
Width: 1566
VWidth: 0
Flags: HW
LayerCount: 2
Fore
SplineSet
261.319907193 1351.0649652 m 0
 288.341206497 1354.82742459 334.174802784 1352.43313225 362.564269142 1345.59229698 c 0
 394.032111369 1338.06737819 442.602041763 1313.78241299 470.649466357 1291.89174014 c 0
 600.96737819 1189.6212529 634.487470998 986.790487239 545.214570766 837.318236659 c 0
 525.034106729 803.798143852 479.200510441 755.57025522 448.758793503 736.07387471 c 0
 337.595220418 664.587146172 198.384222738 679.636983759 102.954570766 773.014385151 c 0
 88.246774942 787.038097448 69.7765197216 808.586728538 61.9095591647 820.558190255 c 0
 -15.049837587 933.774013921 -19.4963805104 1087.35076566 50.2801392111 1205.35517401 c 0
 72.5128538283 1242.97976798 125.87136891 1296.33828306 160.75962877 1315.83466357 c 0
 190.517262181 1332.59470998 231.562273782 1346.96046404 261.319907193 1351.0649652 c 0
324.255591647 1129.07986079 m 0
 289.367331787 1147.20807425 249.690487239 1126.00148492 228.825939675 1078.79972158 c 0
 218.564686775 1055.54088167 216.170394432 1006.97095128 223.695313225 980.975777262 c 0
 230.536148492 956.690812065 247.638236659 931.379721578 265.424408353 919.066218097 c 0
 282.184454756 907.436798144 306.469419954 905.384547564 323.571508121 914.277633411 c 0
 361.880185615 934.116055684 385.481067285 993.289280742 376.245939675 1045.62167053 c 0
 369.405104408 1085.29851508 350.592807425 1115.39819026 324.255591647 1129.07986079 c 0
975.845150812 1292.57582367 m 0
 987.132529002 1297.02236659 1002.18236659 1299.41665893 1017.57424594 1299.41665893 c 0
 1059.64538283 1299.7587007 1097.95406032 1274.78965197 1116.08227378 1235.11280742 c 0
 1127.02761021 1211.51192575 1126.68556845 1170.46691415 1115.05614849 1147.55011601 c 0
 1104.11081206 1126.00148492 448.41675174 197.700139211 431.314663573 180.256009281 c 0
 379.666357309 126.555452436 289.367331787 142.631415313 256.873364269 211.723851508 c 0
 244.559860789 237.719025522 244.559860789 278.079953596 256.189280742 300.654709977 c 0
 269.528909513 325.965800464 927.617262181 1255.63531323 943.351183295 1271.36923434 c 0
 951.560185615 1279.2361949 965.925939675 1288.81336427 975.845150812 1292.57582367 c 0
1088.37689095 800.377726218 m 0
 1133.18436195 806.534477958 1194.40983759 796.615266821 1237.165058 776.776844548 c 0
 1319.59712297 738.12612529 1384.24301624 657.746310905 1408.8700232 563.000742459 c 0
 1415.02677494 540.083944316 1416.05290023 525.376148492 1416.05290023 469.965382831 c 0
 1416.05290023 410.108074246 1415.36881671 401.899071926 1407.50185615 374.193689095 c 0
 1391.08385151 317.072714617 1366.11480278 272.607285383 1328.49020882 232.588399072 c 0
 1273.76352668 174.783341067 1211.16988399 144.683665893 1136.94682135 141.26324826 c 0
 1078.11563805 138.18487239 1029.88774942 150.156334107 981.317819026 179.913967517 c 0
 821.584315545 276.711786543 776.434802784 506.221809745 884.862041763 669.375730858 c 0
 931.721763341 739.836334107 1008.33911833 789.432389791 1088.37689095 800.377726218 c 0
1147.89215777 578.39262181 m 0
 1130.79006961 586.259582367 1113.34593968 586.60162413 1099.66426914 579.4187471 c 0
 1082.22013921 570.525661253 1064.77600928 550.687238979 1054.51475638 528.796566125 c 0
 1045.9637123 509.984269142 1044.93758701 504.169559165 1044.93758701 472.017633411 c 0
 1044.93758701 426.86812065 1053.14658933 403.609280742 1077.43155452 379.324315545 c 0
 1114.37206497 342.383805104 1159.17953596 352.303016241 1185.8587935 402.583155452 c 0
 1219.72092807 466.202923434 1200.22454756 554.449698376 1147.89215777 578.39262181 c 0
EndSplineSet
Validated: 33
EndChar

StartChar: ampersand
Encoding: 38 38 27
Width: 1169
VWidth: 0
Flags: HW
LayerCount: 2
Fore
SplineSet
448.074709977 1330.20041763 m 0
 489.119721578 1334.30491879 493.908306265 1334.30491879 528.454524362 1330.5424594 c 0
 645.090765661 1317.20283063 736.415916473 1249.47856148 774.724593968 1147.89215777 c 0
 793.536890951 1097.95406032 798.325475638 1069.90663573 798.325475638 1007.31299304 c 0
 798.667517401 942.667099768 793.194849188 912.225382831 773.014385151 864.681577726 c 0
 749.755545244 810.296937355 700.843573086 752.49187935 652.615684455 722.73424594 c 2
 632.435220418 710.078700696 l 1
 681.347192575 661.166728538 l 2
 708.026450116 634.145429234 731.285290023 612.254756381 732.311415313 612.254756381 c 0
 735.389791183 612.254756381 769.936009281 671.427981439 792.168723898 714.867285383 c 0
 815.427563805 760.016798144 835.950069606 780.539303944 868.444037123 790.116473318 c 0
 911.199257541 803.114060325 941.298932715 794.905058005 976.871276102 760.700881671 c 0
 1002.18236659 735.731832947 1011.07545244 713.157076566 1007.99707657 678.268816705 c 0
 1006.62890951 660.140603248 1002.86645012 649.537308585 986.790487239 618.069466357 c 0
 962.505522042 570.867703016 942.667099768 535.979443155 912.225382831 487.751554524 c 0
 889.65062645 451.49512761 888.966542923 450.46900232 895.123294664 443.28612529 c 0
 898.201670534 439.523665893 923.854802784 412.844408353 951.560185615 384.796983759 c 0
 1014.15382831 320.835174014 1020.99466357 308.863712297 1018.60037123 264.056241299 c 0
 1016.89016241 229.510023202 1009.70728538 212.407935035 988.158654292 191.885429234 c 0
 958.401020882 162.81187935 913.251508121 153.234709977 873.916705336 167.600464037 c 0
 855.788491879 174.441299304 847.579489559 180.940092807 801.061809745 227.799814385 c 2
 748.729419954 280.132204176 l 1
 718.971786543 254.479071926 l 2
 665.955313225 208.645475638 606.782088167 172.389048724 552.397447796 152.892668213 c 0
 452.5212529 117.320324826 321.519257541 127.92361949 217.196519722 180.598051044 c 0
 147.42 215.486310905 83.4581902552 274.3174942 46.5176798144 337.595220418 c 0
 -9.91921113689 433.708955916 -14.023712297 558.554199536 36.2564269142 657.404269142 c 0
 70.8026450116 725.470580046 136.13262181 791.142598608 203.514849188 825.004733179 c 0
 214.802227378 830.819443155 224.379396752 835.608027842 225.063480278 836.292111369 c 0
 225.405522042 836.634153132 218.222645012 853.052157773 208.987517401 872.548538283 c 0
 181.966218097 930.011554524 176.151508121 956.006728538 176.493549884 1020.99466357 c 0
 176.493549884 1066.14417633 177.861716937 1081.19401392 184.018468677 1106.50510441 c 0
 193.937679814 1145.83990719 220.616937355 1199.54046404 243.875777262 1226.9038051 c 0
 293.129791183 1284.70886311 366.326728538 1321.64937355 448.074709977 1330.20041763 c 0
523.323897912 1111.2936891 m 0
 503.143433875 1115.74023202 473.727842227 1115.74023202 451.837169374 1111.2936891 c 0
 430.97262181 1107.18918794 411.818283063 1093.84955916 403.609280742 1077.43155452 c 0
 394.716194896 1059.64538283 390.269651972 1024.07303944 394.032111369 999.788074246 c 0
 398.820696056 969.688399072 422.079535963 928.985429234 453.889419954 895.80737819 c 0
 465.518839907 883.49387471 465.860881671 883.49387471 483.305011601 886.57225058 c 0
 538.031693735 896.491461717 574.28812065 931.037679814 581.47099768 980.633735499 c 0
 584.891415313 1005.60278422 579.760788863 1053.83067285 571.551786543 1071.95888631 c 0
 563.000742459 1091.79730858 544.530487239 1106.84714617 523.323897912 1111.2936891 c 0
436.10324826 601.309419954 m 0
 404.293364269 633.461345708 377.272064965 660.140603248 376.245939675 659.798561485 c 0
 363.932436195 658.088352668 326.649883991 644.748723898 308.521670534 635.855638051 c 0
 278.079953596 620.463758701 242.507610209 585.57549884 230.194106729 558.896241299 c 0
 221.643062645 541.110069606 220.616937355 534.611276102 220.616937355 506.221809745 c 0
 220.616937355 476.464176334 221.643062645 472.017633411 231.904315545 452.5212529 c 0
 258.241531323 401.899071926 317.072714617 363.590394432 386.507192575 352.645058005 c 0
 432.682830626 345.120139211 464.834756381 349.566682135 504.511600928 369.063062645 c 0
 526.744315545 380.008399072 574.28812065 414.212575406 588.311832947 428.92037123 c 2
 596.520835267 438.15549884 l 1
 545.556612529 490.145846868 l 2
 517.167146172 518.877354988 468.255174014 568.815452436 436.10324826 601.309419954 c 0
EndSplineSet
Validated: 33
EndChar

StartChar: dollar
Encoding: 36 36 28
Width: 1046
VWidth: 0
Flags: HW
LayerCount: 2
Fore
SplineSet
436.10324826 1471.12162413 m 0
 452.5212529 1475.56816705 487.067470998 1471.80570766 503.827517401 1463.9387471 c 0
 527.086357309 1452.99341067 545.898654292 1434.86519722 556.501948956 1413.31656613 c 0
 564.368909513 1397.58264501 566.421160093 1387.66343387 567.789327146 1361.66825986 c 2
 569.499535963 1329.85837587 l 1
 607.12412993 1318.91303944 l 2
 678.952900232 1298.04849188 786.696055684 1249.82060325 812.007146172 1227.58788863 c 0
 818.847981439 1221.77317865 829.109234339 1207.06538283 835.265986079 1194.40983759 c 0
 844.501113689 1175.5975406 846.211322506 1168.07262181 846.211322506 1147.55011601 c 0
 846.211322506 1084.27238979 794.563016241 1036.38654292 730.601206497 1040.49104408 c 0
 713.841160093 1041.51716937 701.185614849 1045.62167053 665.271229698 1062.7237587 c 0
 640.986264501 1074.35317865 608.834338747 1088.37689095 594.126542923 1094.19160093 c 2
 567.789327146 1104.11081206 l 1
 568.473410673 967.294106729 l 1
 569.499535963 830.819443155 l 1
 607.466171694 817.821856148 l 2
 648.853225058 803.798143852 713.499118329 773.698468677 742.572668213 755.228213457 c 0
 817.479814385 707.342366589 869.470162413 641.670348028 888.966542923 571.20974478 c 0
 895.123294664 549.661113689 896.149419954 535.979443155 896.149419954 483.647053364 c 0
 896.149419954 427.210162413 895.465336427 418.659118329 887.256334107 391.295777262 c 0
 852.026032483 269.870951276 754.54412993 181.624176334 618.411508121 148.788167053 c 0
 598.91512761 143.999582367 579.760788863 140.23712297 575.656287703 140.23712297 c 0
 568.13136891 140.23712297 567.789327146 138.868955916 567.789327146 112.873781903 c 0
 567.789327146 64.6458932715 547.950904872 30.099675174 508.958143852 10.6032946636 c 0
 490.829930394 1.36816705336 484.331136891 0 459.70412993 0 c 0
 434.735081206 0 429.262412993 1.36816705336 410.108074246 11.2873781903 c 0
 395.058236659 18.8122969838 384.454941995 27.7053828306 375.561856148 39.3348027842 c 0
 357.775684455 62.9356844548 352.303016241 81.0638979118 352.303016241 116.294199536 c 2
 352.303016241 145.709791183 l 1
 325.965800464 152.208584687 l 2
 259.951740139 167.600464037 185.386635731 198.726264501 92.0092343387 249.690487239 c 0
 37.9666357309 279.44812065 22.5747563805 292.445707657 9.57716937355 319.809048724 c 0
 -20.5225058005 383.770858469 19.8384222738 460.73025522 89.6149419954 472.017633411 c 0
 120.398700696 476.806218097 140.23712297 470.991508121 199.068306265 439.18162413 c 0
 262.346032483 404.977447796 297.234292343 388.559443155 329.044176334 377.614106729 c 2
 352.303016241 369.747146172 l 1
 352.303016241 514.088770302 l 1
 352.303016241 658.772436195 l 1
 313.31025522 671.427981439 l 2
 238.745150812 696.054988399 176.151508121 731.285290023 131.686078886 773.698468677 c 0
 84.8263573086 817.821856148 57.4630162413 864.681577726 44.123387471 922.144593968 c 0
 33.8621345708 967.636148492 35.9143851508 1045.9637123 49.2540139211 1095.90180974 c 0
 73.5389791183 1188.25308585 128.607703016 1256.31939675 213.776102088 1299.07461717 c 0
 246.270069606 1315.15058005 289.367331787 1328.83225058 325.965800464 1334.64696056 c 2
 352.303016241 1338.75146172 l 1
 352.303016241 1362.01030162 l 2
 352.303016241 1414.68473318 385.481067285 1457.78199536 436.10324826 1471.12162413 c 0
352.303016241 1003.89257541 m 0
 352.303016241 1066.82825986 351.276890951 1118.47656613 349.908723898 1118.13452436 c 0
 348.198515081 1118.13452436 341.015638051 1116.08227378 333.490719258 1113.68798144 c 0
 295.524083527 1101.71651972 270.897076566 1079.4838051 261.661948956 1049.38412993 c 0
 254.137030162 1023.38895592 251.400696056 986.106403712 256.531322506 968.320232019 c 0
 262.346032483 946.771600928 288.68324826 920.434385151 321.519257541 903.332296984 c 0
 336.227053364 895.465336427 349.224640371 889.308584687 350.250765661 889.308584687 c 0
 351.276890951 889.308584687 352.303016241 940.956890951 352.303016241 1003.89257541 c 0
601.309419954 585.233457077 m 0
 586.60162413 592.416334107 573.26199536 598.573085847 571.20974478 598.573085847 c 0
 568.815452436 598.573085847 567.789327146 558.212157773 567.789327146 479.200510441 c 2
 567.789327146 359.827935035 l 1
 580.786914153 363.248352668 l 2
 621.489883991 374.535730858 654.667935035 400.188863109 671.085939675 433.708955916 c 0
 681.005150812 453.54737819 682.373317865 459.70412993 682.373317865 483.989095128 c 0
 682.373317865 507.932018561 681.005150812 513.404686775 672.796148492 527.770440835 c 0
 660.824686775 547.608863109 636.197679814 567.789327146 601.309419954 585.233457077 c 0
EndSplineSet
Validated: 33
EndChar

StartChar: euro
Encoding: 8364 8364 29
Width: 1162
VWidth: 0
Flags: HW
LayerCount: 2
Fore
SplineSet
607.12412993 1311.04607889 m 0
 676.558607889 1319.59712297 764.463341067 1302.83707657 836.292111369 1267.26473318 c 0
 902.306171694 1234.77076566 946.087517401 1194.06779582 973.792900232 1139.34111369 c 0
 985.422320186 1116.42431555 986.790487239 1111.2936891 986.790487239 1088.03484919 c 0
 986.790487239 1067.17030162 985.080278422 1058.27721578 977.897401392 1042.88533643 c 0
 959.085104408 1002.86645012 923.170719258 979.949651972 879.047331787 979.949651972 c 0
 838.002320186 979.949651972 808.928770302 997.393781903 782.249512761 1038.4387935 c 0
 769.251925754 1058.27721578 744.28287703 1074.35317865 709.736658933 1085.29851508 c 0
 675.532482599 1095.90180974 611.570672854 1095.90180974 573.604037123 1084.95647332 c 0
 542.136194896 1076.06338747 511.694477958 1061.35559165 487.409512761 1043.22737819 c 0
 469.965382831 1030.22979118 427.552204176 986.448445476 427.552204176 981.317819026 c 0
 427.552204176 979.949651972 482.620928074 978.239443155 550.003155452 977.555359629 c 2
 672.112064965 976.529234339 l 1
 689.214153132 967.294106729 l 2
 709.736658933 956.348770302 728.206914153 937.536473318 739.15225058 916.671925754 c 0
 750.781670534 894.7812529 750.781670534 846.895406032 739.836334107 824.320649652 c 0
 729.91712297 804.140185615 707.684408353 781.907470998 687.845986079 772.330301624 c 0
 672.112064965 764.463341067 670.401856148 764.463341067 516.483062645 763.437215777 c 0
 398.820696056 762.753132251 360.512018561 761.384965197 358.459767981 758.306589327 c 0
 357.091600928 755.912296984 355.723433875 742.23062645 355.723433875 727.86487239 c 2
 355.723433875 701.527656613 l 1
 514.088770302 700.501531323 l 2
 670.743897912 699.475406032 672.112064965 699.475406032 687.845986079 691.608445476 c 0
 707.684408353 682.031276102 729.91712297 659.798561485 739.836334107 639.618097448 c 0
 745.993085847 626.962552204 747.3612529 618.411508121 747.3612529 593.442459397 c 0
 747.3612529 566.763201856 745.993085847 560.264408353 738.12612529 545.556612529 c 0
 727.522830626 525.034106729 708.368491879 506.563851508 687.503944316 495.618515081 c 0
 672.112064965 487.409512761 671.427981439 487.409512761 536.321484919 486.383387471 c 0
 461.414338747 485.699303944 400.188863109 484.331136891 400.188863109 483.305011601 c 0
 400.188863109 478.516426914 424.81587007 438.497540603 436.787331787 423.105661253 c 0
 464.150672854 389.243526682 506.905893271 361.880185615 550.345197216 350.592807425 c 0
 561.974617169 347.514431555 593.78450116 343.751972158 620.463758701 341.699721578 c 0
 678.610858469 337.595220418 705.974199536 341.699721578 743.940835267 360.512018561 c 0
 768.225800464 372.483480278 784.643805104 387.875359629 825.004733179 435.419164733 c 0
 848.263573086 462.440464037 872.20649652 473.727842227 906.410672854 473.385800464 c 0
 937.194431555 473.385800464 956.690812065 465.518839907 979.607610209 444.654292343 c 0
 1003.55053364 422.421577726 1012.44361949 401.557030162 1012.44361949 367.010812065 c 0
 1012.44361949 334.516844548 1009.02320186 324.597633411 988.158654292 293.81387471 c 0
 955.664686775 245.928027842 898.88575406 195.989930394 846.553364269 168.626589327 c 0
 783.959721578 136.474663573 727.522830626 123.135034803 652.957726218 123.135034803 c 0
 493.566264501 123.135034803 384.454941995 164.522088167 292.78774942 259.951740139 c 0
 242.507610209 312.28412993 204.540974478 376.587981439 179.913967517 450.46900232 c 2
 168.626589327 483.989095128 l 1
 122.792993039 486.041345708 l 2
 68.0663109049 488.093596288 53.7005568445 493.566264501 27.7053828306 521.955730858 c 0
 7.86696055684 543.504361949 0 564.026867749 0 593.78450116 c 0
 0 635.855638051 22.9167981439 672.796148492 60.199350348 691.266403712 c 0
 73.5389791183 697.765197216 83.8002320186 699.817447796 108.769280742 700.501531323 c 2
 140.23712297 701.869698376 l 1
 140.23712297 731.96937355 l 1
 140.23712297 762.069048724 l 1
 108.769280742 763.437215777 l 2
 72.170812065 764.805382831 51.6483062645 772.672343387 30.7837587007 793.536890951 c 0
 3.07837587007 821.242273782 -7.5249187935 868.10199536 5.13062645012 906.06863109 c 0
 12.3135034803 927.959303944 36.5984686775 955.322645012 59.5152668213 967.294106729 c 0
 75.9332714617 975.845150812 80.3798143852 976.529234339 130.659953596 977.555359629 c 0
 168.626589327 978.581484919 184.702552204 979.949651972 184.702552204 982.685986079 c 0
 184.702552204 985.080278422 193.253596288 1004.57665893 203.856890951 1026.12529002 c 0
 232.246357309 1084.95647332 262.346032483 1128.0537355 306.12737819 1171.83508121 c 0
 388.901484919 1254.9512297 476.464176334 1295.31215777 607.12412993 1311.04607889 c 0
EndSplineSet
Validated: 33
EndChar

StartChar: sterling
Encoding: 163 163 30
Width: 1121
VWidth: 0
Flags: HW
LayerCount: 2
Fore
SplineSet
528.454524362 1301.12686775 m 0
 554.107656613 1303.86320186 634.487470998 1299.7587007 659.798561485 1294.62807425 c 0
 781.907470998 1270.34310905 868.786078886 1203.98700696 899.569837587 1111.63573086 c 0
 909.831090487 1081.53605568 907.436798144 1056.56700696 892.044918794 1026.46733179 c 0
 859.208909513 961.821438515 771.988259861 948.481809745 720.339953596 1000.47215777 c 0
 713.841160093 1006.97095128 703.579907193 1021.6787471 697.081113689 1033.65020882 c 0
 683.741484919 1058.9612993 669.375730858 1068.53846868 629.698886311 1078.11563805 c 0
 581.813039443 1089.40301624 504.853642691 1083.93034803 471.333549884 1066.82825986 c 0
 421.395452436 1041.17512761 398.136612529 976.187192575 392.321902552 842.448863109 c 2
 390.953735499 814.401438515 l 1
 558.896241299 813.375313225 l 1
 726.8387471 812.349187935 l 1
 745.651044084 803.456102088 l 2
 787.722180974 783.617679814 810.638979118 749.41350348 810.638979118 706.316241299 c 0
 810.638979118 692.976612529 808.244686775 674.848399072 805.166310905 665.955313225 c 0
 797.641392111 644.064640371 773.698468677 618.069466357 749.755545244 606.440046404 c 2
 730.259164733 596.86287703 l 1
 561.974617169 595.83675174 l 1
 393.348027842 594.81062645 l 1
 393.348027842 483.989095128 l 1
 393.348027842 373.167563805 l 1
 642.354431555 372.141438515 l 1
 891.018793503 371.115313225 l 1
 909.831090487 362.222227378 l 2
 935.142180974 350.250765661 949.165893271 337.937262181 961.137354988 316.730672854 c 0
 970.714524362 300.312668213 971.398607889 296.89225058 971.398607889 263.372157773 c 0
 971.398607889 229.852064965 970.714524362 226.089605568 961.479396752 210.013642691 c 0
 949.507935035 189.491136891 931.379721578 172.731090487 910.173132251 162.81187935 c 0
 894.439211137 155.62900232 893.75512761 155.62900232 495.960556845 155.62900232 c 2
 97.4819025522 155.62900232 l 1
 77.9855220418 165.206171694 l 2
 27.0212993039 190.175220418 3.76245939675 246.954153132 22.2327146172 300.99675174 c 0
 26.6792575406 314.678422274 33.8621345708 324.939675174 47.5438051044 338.963387471 c 0
 72.170812065 363.248352668 89.272900232 369.747146172 137.842830626 371.799396752 c 2
 174.441299304 373.851647332 l 1
 174.441299304 483.989095128 l 1
 174.441299304 594.468584687 l 1
 127.239535963 595.83675174 l 2
 84.1422737819 596.86287703 78.6696055684 597.88900232 60.8834338747 606.440046404 c 0
 -21.5486310905 646.800974478 -19.4963805104 764.805382831 64.3038515081 803.114060325 c 0
 81.0638979118 810.638979118 89.6149419954 812.007146172 128.94974478 813.375313225 c 2
 174.441299304 815.085522042 l 1
 174.441299304 837.660278422 l 2
 174.441299304 898.88575406 187.438886311 992.605197216 203.172807425 1046.98983759 c 0
 243.191693735 1185.17470998 340.673596288 1272.05331787 480.910719258 1294.28603248 c 0
 499.723016241 1297.36440835 520.929605568 1300.44278422 528.454524362 1301.12686775 c 0
EndSplineSet
Validated: 33
EndChar

StartChar: zero
Encoding: 48 48 31
Width: 1131
VWidth: 0
Flags: HW
LayerCount: 2
Fore
SplineSet
423.447703016 1176.62366589 m 0
 460.73025522 1184.49062645 525.376148492 1185.17470998 565.052993039 1178.33387471 c 0
 736.415916473 1148.5762413 883.49387471 1006.28686775 948.823851508 807.218561485 c 0
 974.819025522 728.206914153 979.265568445 699.133364269 980.975777262 596.86287703 c 0
 982.685986079 479.542552204 976.529234339 431.656705336 947.455684455 344.436055684 c 0
 888.62450116 167.9425058 758.64863109 42.071136891 599.257169374 6.84083526682 c 0
 559.922366589 -2.05225058005 440.891832947 -2.73633410673 401.557030162 5.47266821346 c 0
 317.414756381 22.5747563805 234.982691415 67.7242691415 169.994756381 132.370162413 c 0
 87.220649652 214.802227378 34.5462180974 318.782923434 9.91921113689 449.100835267 c 0
 0.684083526682 497.670765661 -2.73633410673 612.938839907 3.07837587007 662.534895592 c 0
 18.1282134571 784.985846868 64.3038515081 899.569837587 135.10649652 990.210904872 c 0
 165.206171694 1028.86162413 222.327146172 1082.90422274 259.609698376 1107.5312297 c 0
 311.942088167 1142.76153132 361.880185615 1163.62607889 423.447703016 1176.62366589 c 0
526.744315545 964.215730858 m 0
 504.511600928 967.978190255 491.856055684 968.320232019 475.438051044 965.583897912 c 0
 359.827935035 947.797726218 257.899489559 829.793317865 225.405522042 676.216566125 c 0
 216.512436195 634.487470998 214.460185615 541.794153132 221.985104408 499.380974478 c 0
 237.376983759 409.766032483 273.29136891 334.516844548 324.597633411 284.5787471 c 0
 419.343201856 192.569512761 562.316658933 188.807053364 656.720185615 276.027703016 c 0
 710.420742459 325.623758701 747.3612529 402.925197216 761.042923434 494.250348028 c 0
 767.541716937 538.031693735 767.541716937 625.252343387 761.042923434 665.271229698 c 0
 744.966960557 765.489466357 694.686821346 861.945243619 632.093178654 912.909466357 c 0
 604.04575406 936.168306265 555.475823666 959.769187935 526.744315545 964.215730858 c 0
EndSplineSet
Validated: 33
EndChar

StartChar: one
Encoding: 49 49 32
Width: 611
VWidth: 0
Flags: HW
LayerCount: 2
Fore
SplineSet
205.225058005 1120.52881671 m 0
 320.493132251 1151.31257541 339.647470998 1155.75911833 359.143851508 1154.73299304 c 0
 390.269651972 1153.36482599 413.528491879 1142.41948956 434.05099768 1119.84473318 c 0
 464.150672854 1087.0087239 461.75638051 1132.50027842 461.75638051 579.760788863 c 0
 461.75638051 19.1543387471 464.834756381 70.8026450116 429.604454756 35.5723433875 c 0
 413.186450116 19.4963805104 404.635406032 13.6816705336 388.559443155 8.89308584687 c 0
 334.858886311 -7.86696055684 279.106078886 16.7600464037 255.163155452 68.0663109049 c 0
 247.980278422 83.8002320186 247.980278422 84.1422737819 246.270069606 494.592389791 c 2
 244.559860789 905.384547564 l 1
 189.833178654 890.334709977 l 2
 121.082784223 871.18037123 93.3774013921 869.470162413 64.9879350348 882.809791183 c 0
 38.9927610209 895.123294664 22.5747563805 910.173132251 11.6294199536 932.405846868 c 0
 -13.6816705336 984.396194896 5.8147099768 1049.04208817 54.7266821346 1075.03726218 c 0
 66.6981438515 1081.19401392 121.082784223 1097.61201856 205.225058005 1120.52881671 c 0
EndSplineSet
Validated: 33
EndChar

StartChar: two
Encoding: 50 50 33
Width: 988
VWidth: 0
Flags: HW
LayerCount: 2
Fore
SplineSet
386.507192575 1166.36241299 m 0
 542.478236659 1180.38612529 698.107238979 1088.37689095 771.304176334 938.904640371 c 0
 800.377726218 880.073457077 805.508352668 855.446450116 805.166310905 781.565429234 c 0
 805.166310905 729.575081206 803.798143852 715.893410673 797.641392111 693.660696056 c 0
 772.330301624 601.99350348 716.919535963 517.509187935 631.409095128 440.549791183 c 0
 610.544547564 421.7374942 551.713364269 372.825522042 500.749141531 331.780510441 c 0
 450.126960557 290.73549884 401.557030162 250.716612529 393.005986079 243.191693735 c 2
 377.956148492 229.510023202 l 1
 567.789327146 229.167981439 l 1
 757.6225058 229.167981439 l 1
 778.145011601 219.590812065 l 2
 801.061809745 208.645475638 821.584315545 188.122969838 831.503526682 166.232296984 c 0
 841.080696056 145.025707657 840.396612529 97.8239443155 830.477401392 75.9332714617 c 0
 820.558190255 55.4107656613 797.641392111 32.1519257541 777.118886311 22.9167981439 c 2
 761.042923434 15.3918793503 l 1
 420.71136891 15.3918793503 l 1
 80.3798143852 15.3918793503 l 1
 60.8834338747 24.9690487239 l 2
 39.6768445476 35.2303016241 21.5486310905 53.3585150812 9.57716937355 75.9332714617 c 0
 3.07837587007 88.246774942 1.71020881671 95.7716937355 1.71020881671 121.424825986 c 0
 1.71020881671 168.284547564 5.8147099768 174.783341067 98.5080278422 266.792575406 c 0
 185.044593968 352.645058005 231.904315545 394.032111369 359.827935035 496.986682135 c 0
 490.829930394 603.01962877 522.639814385 632.435220418 553.423573086 677.926774942 c 0
 582.839164733 721.024037123 595.83675174 767.541716937 588.995916473 804.482227378 c 0
 577.708538283 865.365661253 527.428399072 921.118468677 463.80863109 943.351183295 c 0
 442.602041763 950.534060325 435.761206497 951.560185615 410.450116009 949.849976798 c 0
 394.374153132 948.823851508 372.483480278 945.403433875 361.880185615 942.667099768 c 0
 312.28412993 929.327470998 264.740324826 895.80737819 238.061067285 855.446450116 c 0
 206.251183295 807.902645012 177.519675174 791.484640371 130.317911833 794.220974478 c 0
 102.270487239 795.931183295 88.9308584687 801.061809745 66.6981438515 819.190023202 c 0
 45.149512761 836.634153132 33.1780510441 861.603201856 31.4678422274 893.071044084 c 0
 29.4155916473 926.249095128 34.8882598608 942.325058005 59.5152668213 979.265568445 c 0
 130.659953596 1086.32464037 249.690487239 1154.39095128 386.507192575 1166.36241299 c 0
EndSplineSet
Validated: 33
EndChar

StartChar: three
Encoding: 51 51 34
Width: 946
VWidth: 0
Flags: HW
LayerCount: 2
Fore
SplineSet
78.6696055684 1146.18194896 m 0
 83.4581902552 1147.55011601 211.381809745 1148.91828306 362.906310905 1148.91828306 c 0
 673.480232019 1149.26032483 656.720185615 1150.62849188 687.503944316 1122.92310905 c 0
 697.081113689 1114.37206497 709.052575406 1099.32222738 714.183201856 1089.745058 c 0
 722.050162413 1074.69522042 723.418329466 1068.19642691 723.418329466 1041.51716937 c 0
 723.418329466 992.947238979 723.418329466 993.289280742 591.73225058 868.786078886 c 2
 478.516426914 761.727006961 l 1
 508.616102088 754.202088167 l 2
 581.128955916 735.731832947 636.197679814 705.974199536 686.135777262 658.772436195 c 0
 737.442041763 610.544547564 771.988259861 552.397447796 788.748306265 486.383387471 c 0
 795.931183295 457.993921114 796.957308585 446.36450116 796.957308585 391.637819026 c 0
 796.957308585 318.782923434 792.510765661 295.524083527 768.225800464 244.559860789 c 0
 748.38737819 202.146682135 729.575081206 175.125382831 696.397030162 140.579164733 c 0
 635.171554524 76.9593967517 563.000742459 35.9143851508 471.333549884 11.6294199536 c 0
 440.891832947 3.76245939675 427.210162413 2.39429234339 371.799396752 1.02612529002 c 0
 280.816287703 -1.36816705336 233.614524362 7.86696055684 168.96863109 40.3609280742 c 0
 94.0614849188 78.3275638051 19.8384222738 152.55062645 4.44654292343 204.883016241 c 0
 -7.18287703016 245.243944316 5.13062645012 286.63099768 37.6245939675 315.704547564 c 0
 58.147099768 334.174802784 79.0116473318 342.041763341 107.401113689 342.041763341 c 0
 149.130208817 342.041763341 173.757215777 328.360092807 203.856890951 288.68324826 c 0
 238.745150812 242.507610209 281.158329466 219.590812065 337.937262181 216.170394432 c 0
 436.445290023 210.697726218 532.559025522 258.583573086 568.815452436 331.096426914 c 0
 583.52324826 360.512018561 586.943665893 384.796983759 581.813039443 416.264825986 c 0
 571.551786543 476.464176334 531.532900232 519.903480278 468.939257541 539.057819026 c 0
 413.870533643 555.817865429 322.203341067 555.475823666 234.640649652 538.373735499 c 0
 181.282134571 527.770440835 148.44612529 533.927192575 119.372575406 560.264408353 c 0
 110.137447796 568.473410673 98.8500696056 583.52324826 93.3774013921 594.468584687 c 0
 80.3798143852 620.805800464 80.0377726218 659.798561485 92.3512761021 685.793735499 c 0
 101.586403712 705.290116009 104.322737819 708.026450116 240.797401392 836.292111369 c 2
 342.383805104 932.063805104 l 1
 209.671600928 933.774013921 l 2
 79.3536890951 935.484222738 76.6173549884 935.484222738 62.2516009281 943.351183295 c 0
 39.6768445476 955.322645012 21.5486310905 973.450858469 11.2873781903 994.657447796 c 0
 -1.36816705336 1020.31058005 -2.05225058005 1059.98742459 9.23512761021 1084.61443155 c 0
 22.2327146172 1113.68798144 48.9119721578 1136.94682135 78.6696055684 1146.18194896 c 0
EndSplineSet
Validated: 33
EndChar

StartChar: four
Encoding: 52 52 35
Width: 1135
VWidth: 0
Flags: HW
LayerCount: 2
Fore
SplineSet
678.268816705 1151.31257541 m 0
 715.55136891 1163.62607889 763.437215777 1149.60236659 791.484640371 1118.13452436 c 0
 818.847981439 1087.69280742 817.479814385 1107.5312297 817.479814385 765.489466357 c 2
 817.479814385 461.75638051 l 1
 856.814617169 461.75638051 l 2
 915.987842227 461.75638051 946.087517401 448.41675174 970.714524362 411.476241299 c 0
 982.685986079 393.005986079 983.370069606 390.611693735 984.396194896 359.143851508 c 0
 986.106403712 316.730672854 978.923526682 298.260417633 952.244269142 273.975452436 c 0
 927.959303944 251.742737819 910.515174014 245.928027842 859.550951276 243.875777262 c 2
 817.479814385 241.823526682 l 1
 817.479814385 165.89025522 l 2
 817.479814385 73.196937355 815.769605568 66.0140603248 785.327888631 35.5723433875 c 0
 768.909883991 19.4963805104 760.358839907 13.6816705336 744.28287703 8.89308584687 c 0
 691.950487239 -7.5249187935 637.907888631 15.3918793503 611.912714617 64.9879350348 c 0
 604.04575406 79.6957308585 603.703712297 84.1422737819 602.677587007 161.443712297 c 2
 601.651461717 242.507610209 l 1
 342.725846868 243.533735499 l 1
 83.8002320186 244.559860789 l 1
 64.9879350348 253.452946636 l 2
 39.6768445476 265.082366589 23.9429234339 279.44812065 11.6294199536 301.680835267 c 0
 2.73633410673 318.098839907 1.71020881671 322.887424594 1.71020881671 352.303016241 c 0
 1.71020881671 380.350440835 2.73633410673 386.849234339 10.2612529002 400.872946636 c 0
 15.049837587 409.766032483 145.025707657 561.974617169 299.286542923 739.494292343 c 0
 453.54737819 916.671925754 593.442459397 1077.43155452 609.860464037 1096.92793503 c 0
 640.986264501 1132.84232019 653.983851508 1143.44561485 678.268816705 1151.31257541 c 0
601.99350348 608.834338747 m 0
 601.99350348 689.898236659 601.651461717 755.912296984 601.309419954 755.57025522 c 0
 599.599211137 755.228213457 350.592807425 467.571090487 349.566682135 464.492714617 c 0
 348.882598608 463.124547564 405.319489559 461.75638051 475.096009281 461.75638051 c 2
 601.99350348 461.75638051 l 1
 601.99350348 608.834338747 l 0
EndSplineSet
Validated: 33
EndChar

StartChar: five
Encoding: 53 53 36
Width: 946
VWidth: 0
Flags: HW
LayerCount: 2
Fore
SplineSet
116.294199536 1163.28403712 m 0
 121.082784223 1164.65220418 251.742737819 1165.67832947 407.029698376 1165.3362877 c 2
 689.214153132 1164.65220418 l 1
 706.316241299 1155.41707657 l 2
 724.444454756 1145.83990719 748.38737819 1122.58106729 756.938422274 1105.82102088 c 0
 765.489466357 1089.40301624 769.593967517 1058.61925754 766.173549884 1039.46491879 c 0
 758.990672854 1002.52440835 736.757958237 974.819025522 701.185614849 958.058979118 c 2
 682.373317865 949.165893271 l 1
 464.834756381 948.139767981 l 1
 247.638236659 947.113642691 l 1
 243.533735499 862.629327146 l 2
 241.481484919 816.453689095 240.113317865 777.802969838 240.797401392 777.460928074 c 0
 241.481484919 776.776844548 253.794988399 778.145011601 268.844825986 780.539303944 c 0
 311.942088167 787.038097448 429.262412993 786.011972158 470.307424594 778.487053364 c 0
 512.036519722 771.304176334 565.395034803 753.860046404 599.257169374 736.757958237 c 0
 696.397030162 687.845986079 763.095174014 604.729837587 790.116473318 498.696890951 c 0
 795.931183295 477.148259861 796.957308585 461.072296984 796.957308585 407.713781903 c 0
 796.957308585 348.540556845 796.273225058 340.331554524 788.406264501 313.31025522 c 0
 752.49187935 189.833178654 651.931600928 89.272900232 515.456937355 41.3870533643 c 0
 403.267238979 2.05225058005 280.132204176 5.13062645012 181.966218097 49.9380974478 c 0
 107.059071926 84.1422737819 28.047424594 158.70737819 6.49879350348 215.486310905 c 0
 -18.8122969838 282.52649652 34.8882598608 359.143851508 107.743155452 359.143851508 c 0
 146.051832947 359.143851508 174.783341067 343.067888631 202.488723898 306.12737819 c 0
 245.243944316 249.348445476 302.364918794 225.747563805 379.666357309 232.930440835 c 0
 435.761206497 238.061067285 492.882180974 262.688074246 530.848816705 297.576334107 c 0
 572.23587007 335.542969838 589.337958237 378.982273782 582.155081206 427.552204176 c 0
 572.23587007 496.986682135 527.770440835 542.136194896 452.5212529 559.922366589 c 0
 431.314663573 564.710951276 412.160324826 566.079118329 360.854060325 565.737076566 c 0
 289.70937355 565.737076566 257.899489559 561.632575406 184.702552204 543.162320186 c 0
 128.607703016 529.138607889 106.374988399 529.138607889 76.9593967517 543.504361949 c 0
 51.9903480278 555.817865429 36.5984686775 571.893828306 24.6270069606 597.88900232 c 0
 14.023712297 621.147842227 14.023712297 618.069466357 25.3110904872 849.973781903 c 0
 36.2564269142 1075.37930394 36.2564269142 1076.06338747 43.097262181 1095.21772622 c 0
 52.6744315545 1123.60719258 84.8263573086 1153.36482599 116.294199536 1163.28403712 c 0
EndSplineSet
Validated: 33
EndChar

StartChar: six
Encoding: 54 54 37
Width: 1029
VWidth: 0
Flags: HW
LayerCount: 2
Fore
SplineSet
412.160324826 1173.54529002 m 0
 457.993921114 1182.09633411 543.846403712 1180.38612529 592.416334107 1170.12487239 c 0
 659.114477958 1155.75911833 723.76037123 1127.36965197 773.014385151 1091.11322506 c 0
 817.821856148 1057.59313225 832.871693735 1031.94 832.529651972 988.500696056 c 0
 832.187610209 960.795313225 823.636566125 939.930765661 802.087935035 917.013967517 c 0
 779.855220418 893.413085847 757.964547564 884.177958237 723.418329466 884.52 c 0
 692.976612529 884.52 678.952900232 889.992668213 648.169141531 913.593549884 c 0
 592.074292343 956.006728538 500.749141531 973.108816705 429.604454756 954.638561485 c 0
 375.903897912 940.272807425 325.623758701 908.120881671 292.103665893 866.04974478 c 0
 270.212993039 838.686403712 244.559860789 783.959721578 234.298607889 744.28287703 c 0
 221.985104408 695.028863109 221.643062645 695.712946636 245.585986079 707.684408353 c 0
 274.3174942 722.050162413 320.493132251 737.784083527 360.169976798 746.33512761 c 0
 405.661531323 755.912296984 498.012807425 756.938422274 547.266821346 748.045336427 c 0
 646.458932715 729.91712297 721.70812065 691.608445476 782.591554524 627.646635731 c 0
 825.346774942 582.839164733 852.368074246 533.927192575 869.470162413 470.649466357 c 0
 876.31099768 446.706542923 877.33712297 434.05099768 877.33712297 379.666357309 c 0
 877.33712297 329.728259861 875.968955916 311.942088167 871.522412993 294.84 c 0
 829.451276102 143.31549884 702.553781903 35.5723433875 531.874941995 6.15675174014 c 0
 480.226635731 -2.73633410673 398.820696056 -1.02612529002 351.960974478 9.91921113689 c 0
 217.880603248 40.7029698376 111.847656613 119.372575406 59.8573085847 226.773689095 c 0
 42.071136891 264.056241299 32.4939675174 296.89225058 25.9951740139 345.462180974 c 0
 23.2588399072 365.300603248 17.7861716937 401.557030162 14.023712297 425.84199536 c 0
 -6.84083526682 560.264408353 -4.10450116009 689.898236659 22.2327146172 793.194849188 c 0
 73.8810208817 997.051740139 218.222645012 1137.97294664 412.160324826 1173.54529002 c 0
516.483062645 532.216983759 m 0
 484.331136891 538.031693735 425.499953596 538.031693735 398.478654292 531.874941995 c 0
 334.174802784 517.851229698 279.106078886 478.516426914 254.479071926 428.578329466 c 0
 245.928027842 411.134199536 244.901902552 404.977447796 244.559860789 376.245939675 c 0
 244.559860789 346.146264501 245.585986079 341.699721578 255.847238979 320.835174014 c 0
 277.39587007 277.053828306 331.780510441 238.061067285 391.637819026 223.695313225 c 0
 424.131786543 215.828352668 483.305011601 215.828352668 514.772853828 223.695313225 c 0
 528.112482599 227.115730858 551.371322506 236.008816705 567.105243619 243.533735499 c 0
 602.677587007 260.293781903 636.881763341 292.78774942 651.931600928 323.229466357 c 0
 660.824686775 341.699721578 661.850812065 346.830348028 661.508770302 377.956148492 c 0
 661.508770302 403.951322506 659.798561485 416.948909513 654.325893271 431.9987471 c 0
 634.829512761 484.673178654 587.285707657 519.219396752 516.483062645 532.216983759 c 0
EndSplineSet
Validated: 33
EndChar

StartChar: seven
Encoding: 55 55 38
Width: 967
VWidth: 0
Flags: HW
LayerCount: 2
Fore
SplineSet
75.9332714617 1161.23178654 m 0
 98.8500696056 1168.41466357 720.339953596 1168.41466357 744.28287703 1161.23178654 c 0
 770.278051044 1153.36482599 793.194849188 1133.86844548 806.534477958 1108.21531323 c 0
 817.821856148 1086.66668213 818.163897912 1084.95647332 816.795730858 1053.48863109 c 2
 815.427563805 1020.99466357 l 1
 685.451693735 773.014385151 l 2
 613.964965197 636.539721578 500.749141531 420.369327146 434.05099768 292.445707657 c 0
 342.725846868 116.978283063 309.547795824 56.7789327146 299.286542923 46.175638051 c 0
 247.296194896 -6.49879350348 156.997169374 7.86696055684 124.503201856 73.5389791183 c 0
 113.215823666 96.7978190255 110.137447796 128.607703016 117.320324826 150.840417633 c 0
 121.424825986 164.86412993 181.624176334 280.47424594 420.027285383 735.389791183 c 0
 447.048584687 787.038097448 482.962969838 855.788491879 499.723016241 888.282459397 c 2
 530.506774942 947.113642691 l 1
 308.863712297 948.139767981 l 2
 57.8050580046 949.507935035 69.7765197216 948.139767981 37.6245939675 977.213317865 c 0
 15.3918793503 997.051740139 3.07837587007 1021.33670534 0.684083526682 1048.7000464 c 0
 -3.07837587007 1098.98018561 28.3894663573 1146.52399072 75.9332714617 1161.23178654 c 0
EndSplineSet
Validated: 33
EndChar

StartChar: eight
Encoding: 56 56 39
Width: 1035
VWidth: 0
Flags: HW
LayerCount: 2
Fore
SplineSet
403.609280742 1173.20324826 m 0
 419.685243619 1174.57141531 435.761206497 1175.93958237 439.523665893 1175.93958237 c 0
 458.335962877 1177.30774942 529.138607889 1168.75670534 559.922366589 1161.23178654 c 0
 717.60361949 1123.26515081 830.477401392 1011.07545244 848.605614849 874.2587471 c 0
 858.866867749 794.220974478 829.793317865 706.316241299 770.620092807 639.618097448 c 2
 756.938422274 624.568259861 l 1
 789.774431555 591.390208817 l 2
 827.741067285 553.423573086 853.736241299 514.088770302 871.864454756 467.571090487 c 2
 884.177958237 436.10324826 l 1
 884.177958237 364.274477958 l 1
 884.177958237 292.445707657 l 1
 872.890580046 263.030116009 l 2
 825.004733179 137.500788863 704.606032483 44.4654292343 551.713364269 15.049837587 c 0
 268.502784223 -38.9927610209 0 131.00199536 0 364.616519722 c 0
 0 450.811044084 35.9143851508 529.138607889 107.401113689 598.231044084 c 0
 121.766867749 611.912714617 133.396287703 623.884176334 133.396287703 624.568259861 c 0
 133.396287703 625.594385151 126.555452436 633.461345708 118.346450116 642.354431555 c 0
 94.4035266821 668.007563805 67.3822273782 714.183201856 54.3846403712 751.123712297 c 0
 43.097262181 783.959721578 42.7552204176 786.696055684 42.7552204176 838.002320186 c 0
 42.7552204176 899.91187935 46.8597215777 918.382134571 70.1185614849 966.952064965 c 0
 86.1945243619 1000.13011601 114.926032483 1038.4387935 142.28937355 1063.74988399 c 0
 207.961392111 1124.63331787 303.733085847 1164.65220418 403.609280742 1173.20324826 c 0
489.119721578 953.954477958 m 0
 416.606867749 965.925939675 335.542969838 945.745475638 291.76162413 905.384547564 c 0
 236.008816705 854.078283063 250.716612529 791.826682135 327.676009281 751.46575406 c 0
 363.248352668 732.653457077 396.768445476 725.128538283 444.654292343 725.128538283 c 0
 528.796566125 725.128538283 599.599211137 758.306589327 624.568259861 808.928770302 c 0
 639.618097448 840.054570766 632.777262181 870.496287703 604.729837587 898.88575406 c 0
 576.682412993 927.275220418 536.663526682 946.429559165 489.119721578 953.954477958 c 0
491.514013921 502.459350348 m 0
 400.872946636 515.114895592 312.28412993 491.171972158 257.557447796 440.20774942 c 0
 205.567099768 391.637819026 204.540974478 338.963387471 254.821113689 289.367331787 c 0
 278.079953596 266.450533643 322.545382831 243.191693735 364.274477958 231.904315545 c 0
 403.951322506 221.301020882 489.119721578 221.301020882 528.454524362 232.246357309 c 0
 590.364083527 249.006403712 644.406682135 286.63099768 663.903062645 326.649883991 c 0
 674.848399072 349.566682135 675.190440835 378.298190255 663.903062645 401.214988399 c 0
 639.960139211 450.126960557 569.1574942 491.856055684 491.514013921 502.459350348 c 0
EndSplineSet
Validated: 33
EndChar

StartChar: nine
Encoding: 57 57 40
Width: 1029
VWidth: 0
Flags: HW
LayerCount: 2
Fore
SplineSet
354.013225058 1174.91345708 m 0
 397.110487239 1181.75429234 487.067470998 1179.36 528.454524362 1170.12487239 c 0
 590.364083527 1156.44320186 637.907888631 1136.26273782 688.872111369 1102.40060325 c 0
 776.434802784 1043.91146172 837.660278422 953.270394432 851.341948956 861.261160093 c 0
 853.394199536 847.579489559 858.866867749 811.665104408 863.655452436 781.565429234 c 0
 877.679164733 691.950487239 879.047331787 672.796148492 879.047331787 582.49712297 c 0
 879.047331787 522.981856148 877.33712297 484.331136891 873.574663573 457.993921114 c 0
 840.738654292 221.301020882 695.712946636 55.4107656613 480.568677494 7.86696055684 c 0
 467.571090487 5.13062645012 434.393039443 2.05225058005 407.029698376 1.02612529002 c 0
 304.07512761 -2.73633410673 210.697726218 21.8906728538 129.97587007 74.223062645 c 0
 69.7765197216 113.215823666 49.9380974478 141.947331787 49.5960556845 188.122969838 c 0
 49.5960556845 231.904315545 72.5128538283 268.502784223 111.847656613 286.288955916 c 0
 150.840417633 304.07512761 188.122969838 299.286542923 226.089605568 271.239118329 c 0
 341.699721578 186.070719258 500.749141531 204.198932715 588.311832947 312.28412993 c 0
 617.727424594 348.540556845 646.116890951 414.896658933 655.009976798 467.571090487 c 2
 657.404269142 481.936844548 l 1
 628.672761021 468.939257541 l 2
 453.54737819 387.875359629 228.483897912 420.369327146 105.690904872 544.530487239 c 0
 -1.02612529002 651.931600928 -30.099675174 824.320649652 36.2564269142 954.980603248 c 0
 94.4035266821 1069.56459397 213.434060325 1151.99665893 354.013225058 1174.91345708 c 0
480.568677494 957.374895592 m 0
 394.032111369 972.424733179 313.994338747 950.876102088 261.319907193 898.201670534 c 0
 232.930440835 869.470162413 221.643062645 845.185197216 219.590812065 808.928770302 c 0
 216.170394432 745.651044084 246.612111369 693.660696056 302.364918794 667.323480278 c 0
 336.227053364 650.905475638 360.169976798 646.116890951 412.502366589 644.064640371 c 0
 453.889419954 642.354431555 464.492714617 643.038515081 489.461763341 649.537308585 c 0
 552.739489559 665.271229698 604.04575406 703.237865429 626.620510441 751.123712297 c 0
 636.539721578 771.988259861 637.907888631 778.145011601 637.907888631 803.798143852 c 0
 637.907888631 829.451276102 636.539721578 835.608027842 627.304593968 855.104408353 c 0
 613.280881671 884.177958237 596.86287703 902.306171694 568.13136891 921.460510441 c 0
 541.452111369 939.246682135 510.326310905 951.902227378 480.568677494 957.374895592 c 0
EndSplineSet
Validated: 33
EndChar

StartChar: exclam
Encoding: 33 33 41
Width: 365
VWidth: 0
Flags: HW
LayerCount: 2
Fore
SplineSet
63.2777262181 1307.28361949 m 0
 82.0900232019 1316.5187471 86.1945243619 1317.20283063 112.873781903 1315.83466357 c 0
 157.6812529 1314.12445476 186.070719258 1296.33828306 205.225058005 1258.02960557 c 2
 215.486310905 1237.165058 l 1
 215.486310905 918.382134571 l 1
 215.486310905 599.599211137 l 1
 205.225058005 578.734663573 l 2
 186.412761021 541.110069606 157.6812529 522.981856148 114.241948956 520.587563805 c 0
 89.272900232 519.219396752 84.1422737819 520.245522042 65.3299767981 528.454524362 c 0
 41.3870533643 539.399860789 20.1804640371 560.264408353 9.23512761021 584.207331787 c 2
 1.71020881671 600.283294664 l 1
 1.71020881671 918.382134571 l 2
 1.71020881671 1236.13893271 1.71020881671 1236.48097448 8.89308584687 1252.21489559 c 0
 19.8384222738 1275.4737355 40.0188863109 1295.9962413 63.2777262181 1307.28361949 c 0
78.6696055684 397.110487239 m 0
 83.4581902552 398.820696056 99.5341531323 399.504779582 114.583990719 398.820696056 c 0
 157.6812529 397.452529002 186.070719258 378.982273782 205.225058005 341.357679814 c 0
 214.802227378 321.861299304 215.486310905 318.098839907 215.486310905 282.184454756 c 0
 215.486310905 246.270069606 214.802227378 242.507610209 204.883016241 222.669187935 c 0
 185.044593968 182.992343387 147.077958237 161.78575406 101.244361949 164.86412993 c 0
 61.2254756381 167.600464037 29.073549884 189.149095128 11.2873781903 225.063480278 c 0
 2.73633410673 242.849651972 1.71020881671 247.980278422 1.71020881671 282.184454756 c 0
 1.71020881671 313.31025522 3.07837587007 322.545382831 8.89308584687 335.542969838 c 0
 22.2327146172 364.274477958 47.8858468677 387.191276102 78.6696055684 397.110487239 c 0
EndSplineSet
Validated: 33
EndChar

StartChar: question
Encoding: 63 63 42
Width: 878
VWidth: 0
Flags: HW
LayerCount: 2
Fore
SplineSet
297.576334107 1310.0199536 m 0
 352.987099768 1319.59712297 424.473828306 1319.25508121 466.202923434 1308.65178654 c 0
 587.285707657 1277.86802784 692.292529002 1169.44078886 722.050162413 1044.59554524 c 0
 728.206914153 1018.60037123 728.89099768 1006.62890951 727.86487239 962.847563805 c 0
 726.496705336 918.724176334 725.128538283 907.778839907 717.261577726 884.862041763 c 0
 686.135777262 794.220974478 619.779675174 718.62974478 524.350023202 664.929187935 c 2
 496.644640371 649.537308585 l 1
 495.276473318 594.126542923 l 2
 494.250348028 541.452111369 493.566264501 537.689651972 485.015220418 520.929605568 c 0
 443.28612529 441.917958237 335.200928074 439.523665893 292.103665893 517.167146172 c 2
 282.184454756 535.295359629 l 1
 281.158329466 638.934013921 l 1
 280.132204176 742.23062645 l 1
 289.367331787 762.753132251 l 2
 302.364918794 792.168723898 320.151090487 806.534477958 374.535730858 832.529651972 c 0
 443.628167053 865.707703016 483.647053364 897.175545244 503.143433875 934.116055684 c 0
 515.456937355 957.374895592 514.772853828 993.631322506 501.433225058 1020.99466357 c 0
 489.119721578 1045.9637123 459.362088167 1076.747471 434.05099768 1089.745058 c 0
 416.948909513 1098.98018561 412.844408353 1099.66426914 379.666357309 1099.32222738 c 0
 299.286542923 1098.29610209 249.348445476 1072.30092807 214.118143852 1012.44361949 c 0
 185.728677494 964.557772622 154.60287703 943.351183295 112.873781903 942.667099768 c 0
 83.4581902552 942.325058005 58.8311832947 951.218143852 38.6507192575 969.346357309 c 0
 19.8384222738 986.448445476 8.55104408353 1006.97095128 3.07837587007 1033.65020882 c 0
 -2.05225058005 1058.9612993 5.47266821346 1087.0087239 26.6792575406 1122.58106729 c 0
 89.6149419954 1228.61401392 176.151508121 1288.47132251 297.576334107 1310.0199536 c 0
351.618932715 395.058236659 m 0
 372.141438515 403.267238979 414.896658933 399.846821346 436.445290023 388.901484919 c 0
 459.020046404 377.614106729 480.226635731 353.329141531 489.461763341 328.702134571 c 0
 499.038932715 303.391044084 497.670765661 253.110904872 486.725429234 228.825939675 c 0
 477.148259861 207.277308585 456.967795824 186.070719258 436.445290023 175.125382831 c 0
 421.395452436 167.258422274 414.896658933 165.89025522 388.217401392 165.89025522 c 0
 352.303016241 165.89025522 334.174802784 172.731090487 311.600046404 195.305846868 c 0
 289.025290023 217.880603248 282.52649652 235.666774942 281.158329466 276.36974478 c 0
 279.790162413 315.3625058 284.236705336 333.832761021 299.97062645 356.749559165 c 0
 310.23187935 371.457354988 332.122552204 387.875359629 351.618932715 395.058236659 c 0
EndSplineSet
Validated: 33
EndChar

StartChar: period
Encoding: 46 46 43
Width: 365
VWidth: 0
Flags: HW
LayerCount: 2
Fore
SplineSet
78.6696055684 499.723016241 m 0
 83.4581902552 501.091183295 96.7978190255 502.459350348 108.427238979 502.459350348 c 0
 150.840417633 503.143433875 186.070719258 481.594802784 204.883016241 443.970208817 c 0
 214.802227378 424.473828306 215.486310905 420.71136891 215.486310905 384.796983759 c 0
 215.486310905 348.882598608 214.802227378 345.120139211 204.883016241 325.281716937 c 0
 185.044593968 285.60487239 147.077958237 264.398283063 101.244361949 267.476658933 c 0
 61.2254756381 270.212993039 29.073549884 291.76162413 11.2873781903 327.676009281 c 0
 2.73633410673 345.462180974 1.71020881671 350.592807425 1.71020881671 384.796983759 c 0
 1.71020881671 415.922784223 3.07837587007 425.157911833 8.89308584687 438.15549884 c 0
 22.2327146172 467.229048724 48.9119721578 490.487888631 78.6696055684 499.723016241 c 0
EndSplineSet
Validated: 33
EndChar

StartChar: comma
Encoding: 44 44 44
Width: 379
VWidth: 0
Flags: HW
LayerCount: 2
Fore
SplineSet
76.9593967517 493.224222738 m 0
 128.607703016 517.509187935 191.885429234 495.960556845 219.590812065 444.31225058 c 0
 226.773689095 430.288538283 227.457772622 424.473828306 228.483897912 364.958561485 c 0
 230.194106729 270.897076566 219.248770302 224.721438515 187.438886311 189.833178654 c 0
 164.86412993 164.86412993 143.31549884 155.62900232 107.743155452 155.971044084 c 0
 85.5104408353 155.971044084 76.9593967517 157.339211137 63.2777262181 164.180046404 c 0
 14.3657540603 188.122969838 -9.91921113689 242.165568445 5.13062645012 292.78774942 c 0
 9.57716937355 306.469419954 11.9714617169 330.412343387 13.6816705336 367.694895592 c 0
 15.3918793503 412.844408353 17.1020881671 425.157911833 22.9167981439 438.15549884 c 0
 33.5200928074 461.414338747 53.7005568445 481.936844548 76.9593967517 493.224222738 c 0
EndSplineSet
Validated: 33
EndChar

StartChar: a
Encoding: 97 97 45
Width: 1312
VWidth: 0
Flags: HW
LayerCount: 2
Fore
SplineSet
546.240696056 1168.41466357 m 0
 563.684825986 1174.57141531 601.309419954 1174.57141531 618.753549884 1168.07262181 c 0
 639.276055684 1160.88974478 660.140603248 1144.8137819 671.427981439 1128.0537355 c 0
 676.900649652 1119.84473318 789.090348028 900.93800464 921.118468677 641.328306265 c 2
 1161.23178654 169.310672854 l 1
 1161.23178654 129.291786543 l 1
 1161.23178654 89.6149419954 l 1
 1147.55011601 69.4344779582 l 2
 1123.26515081 34.5462180974 1079.14176334 15.049837587 1041.17512761 23.2588399072 c 0
 990.894988399 33.5200928074 970.629978608 62.6233545679 925.907053364 149.814292343 c 2
 885.204101562 228.16796875 l 1
 582.155273438 227.484375 l 1
 279.106445312 227.458007812 l 5
 239.429234339 149.814292343 l 2
 217.538561485 107.059071926 194.963805104 66.0140603248 188.807053364 58.4891415313 c 0
 175.809466357 42.4131786543 142.631415313 24.9690487239 118.688491879 21.8906728538 c 0
 82.7741067285 17.1020881671 37.2825522042 38.9927610209 16.7600464037 71.1446867749 c 0
 3.07837587007 92.6933178654 -1.02612529002 110.137447796 0.684083526682 138.526914153 c 2
 2.39429234339 162.81187935 l 1
 246.270069606 643.038515081 l 2
 380.350440835 907.436798144 493.908306265 1128.39577726 498.354849188 1134.21048724 c 0
 508.274060325 1147.55011601 528.796566125 1161.91587007 546.240696056 1168.41466357 c 0
698.791322506 597.88900232 m 0
 656.036102088 682.031276102 612.254756381 767.541716937 601.651461717 788.064222738 c 2
 582.155081206 825.346774942 l 1
 566.079118329 793.194849188 l 2
 557.186032483 775.408677494 513.746728538 689.898236659 469.623341067 603.01962877 c 2
 389.243526682 444.654292343 l 1
 582.839164733 444.654292343 l 1
 776.434802784 444.654292343 l 1
 698.791322506 597.88900232 l 0
EndSplineSet
EndChar

StartChar: b
Encoding: 98 98 46
Width: 1131
VWidth: 0
Flags: HW
LayerCount: 2
Fore
SplineSet
78.6696055684 1170.12487239 m 0
 83.4581902552 1171.49303944 207.961392111 1172.8612065 355.723433875 1172.8612065 c 0
 661.166728538 1173.20324826 650.905475638 1173.88733179 714.183201856 1144.12969838 c 0
 754.886171694 1124.63331787 781.907470998 1105.47897912 812.691229698 1073.66909513 c 0
 854.420324826 1030.22979118 880.41549884 983.712111369 894.439211137 928.643387471 c 0
 915.645800464 844.843155452 906.06863109 765.831508121 865.365661253 688.872111369 c 2
 848.947656613 657.746310905 l 1
 874.2587471 633.119303944 l 2
 905.384547564 603.01962877 923.170719258 579.4187471 942.667099768 542.136194896 c 0
 972.766774942 485.699303944 981.659860789 447.732668213 981.659860789 374.877772622 c 0
 981.659860789 330.754385151 980.291693735 317.072714617 973.450858469 290.051415313 c 0
 944.035266821 174.099257541 856.472575406 79.0116473318 744.28287703 41.0450116009 c 0
 688.872111369 22.2327146172 691.950487239 22.2327146172 375.903897912 22.2327146172 c 2
 83.1161484919 22.2327146172 l 1
 59.5152668213 34.2041763341 l 2
 42.7552204176 42.7552204176 32.4939675174 50.9642227378 23.2588399072 63.2777262181 c 0
 -1.71020881671 95.7716937355 -0.342041763341 60.199350348 0.684083526682 604.04575406 c 2
 1.71020881671 1092.82343387 l 1
 8.89308584687 1108.55735499 l 2
 22.2327146172 1137.63090487 48.9119721578 1160.88974478 78.6696055684 1170.12487239 c 0
624.910301624 946.771600928 m 0
 624.910301624 946.771600928 596 956 575.124023438 957.006835938 c 16
 561.641601562 957.65625 544.479492188 958.025390625 529 958.205078125 c 0
 473.15234375 958.8515625 413.186523438 959.033203125 413.186523438 959.033203125 c 1
 218.906728538 958.058979118 l 1
 218.906728538 844.843155452 l 1
 218.906728538 731.96937355 l 1
 403.267238979 731.96937355 l 2
 580.786914153 731.96937355 588.311832947 732.311415313 610.886589327 739.15225058 c 0
 630.040928074 744.966960557 637.223805104 749.755545244 653.299767981 765.831508121 c 0
 679.636983759 791.826682135 688.872111369 815.769605568 686.819860789 851.683990719 c 0
 684.083526682 894.097169374 663.218979118 926.591136891 624.910301624 946.771600928 c 0
647.485351562 515.0625 m 0
 634.487304688 516.772460938 536.321484919 516.483062645 421.7374942 516.483062645 c 2
 218.906728538 516.483062645 l 1
 218.906728538 377.956148492 l 1
 218.90625 238.086914062 l 1
 440.549804688 239.11328125 l 1
 440.549804688 239.11328125 522.229492188 239.594726562 580 239.6171875 c 0
 603.952148438 239.626953125 623.793524107 239.728950451 632 240 c 0
 651.335073544 240.632324353 672.660110492 245.327871774 681.689234339 249.006403712 c 4
 709.394617169 260.293781903 739.15225058 288.68324826 753.175962877 317.414756381 c 0
 763.779257541 338.621345708 764.463341067 342.383805104 764.463341067 376.245939675 c 0
 764.463341067 409.423990719 763.779257541 413.870533643 753.51800464 435.419164733 c 0
 733.337540603 478.174385151 695.029296875 508.221679688 647.485351562 515.0625 c 0
EndSplineSet
EndChar

StartChar: c
Encoding: 99 99 47
Width: 1196
VWidth: 0
Flags: HW
LayerCount: 2
Fore
SplineSet
530.164733179 1201.59271462 m 0
 560.606450116 1204.67109049 618.753549884 1203.6449652 654.325893271 1198.85638051 c 0
 752.49187935 1185.8587935 847.579489559 1149.26032483 936.510348028 1089.745058 c 0
 1029.88774942 1027.49345708 1049.04208817 1002.18236659 1045.9637123 945.745475638 c 0
 1044.59554524 917.013967517 1035.01837587 895.80737819 1015.52199536 875.968955916 c 0
 992.947238979 853.394199536 974.819025522 846.553364269 938.904640371 846.553364269 c 0
 902.648213457 846.553364269 897.85962877 848.605614849 847.579489559 886.57225058 c 0
 807.218561485 917.356009281 776.092761021 935.826264501 738.810208817 952.244269142 c 0
 592.074292343 1016.89016241 449.784918794 990.552946636 336.569095128 877.33712297 c 0
 274.3174942 815.085522042 236.692900232 741.888584687 224.037354988 657.746310905 c 0
 205.567099768 535.637401392 243.191693735 416.264825986 328.018051044 327.676009281 c 0
 384.796983759 267.818700696 449.784918794 232.246357309 526.744315545 218.564686775 c 0
 557.528074246 213.092018561 621.831925754 214.118143852 657.062227378 220.274895592 c 0
 717.261577726 231.220232019 786.354013921 261.661948956 835.608027842 298.94450116 c 0
 885.54612529 336.911136891 893.413085847 342.041763341 912.567424594 347.514431555 c 0
 959.427146172 361.196102088 1013.46974478 336.911136891 1036.38654292 291.76162413 c 0
 1042.88533643 279.106078886 1045.27962877 268.844825986 1045.9637123 246.270069606 c 0
 1046.98983759 218.906728538 1046.30575406 215.828352668 1035.7024594 194.963805104 c 0
 1027.15141531 177.861716937 1018.25832947 167.258422274 997.051740139 149.130208817 c 0
 915.303758701 79.0116473318 803.456102088 25.9951740139 698.107238979 6.84083526682 c 0
 648.169141531 -2.05225058005 537.689651972 -2.73633410673 490.487888631 5.13062645012 c 0
 194.279721578 55.7528074246 -17.7861716937 333.148677494 3.76245939675 640.986264501 c 0
 17.1020881671 831.503526682 116.294199536 1001.1562413 277.053828306 1108.89939675 c 0
 353.329141531 1159.86361949 442.26 1192.35758701 530.164733179 1201.59271462 c 0
EndSplineSet
EndChar

StartChar: d
Encoding: 100 100 48
Width: 1220
VWidth: 0
Flags: HW
LayerCount: 2
Fore
SplineSet
74.223062645 1168.41466357 m 0
 84.8263573086 1172.17712297 133.396287703 1172.8612065 347.172389791 1172.17712297 c 0
 603.01962877 1171.15099768 607.808213457 1171.15099768 641.328306265 1163.28403712 c 0
 692.292529002 1151.99665893 722.050162413 1141.05132251 771.304176334 1116.76635731 c 0
 919.408259861 1043.56941995 1022.36283063 905.726589327 1061.01354988 728.548955916 c 0
 1068.19642691 696.054988399 1068.88051044 683.741484919 1068.88051044 598.573085847 c 0
 1068.88051044 520.245522042 1067.85438515 499.723016241 1062.7237587 475.438051044 c 0
 1049.38412993 414.212575406 1033.99225058 368.721020882 1009.70728538 319.809048724 c 0
 946.771600928 191.885429234 827.399025522 88.246774942 696.054988399 46.8597215777 c 0
 617.727424594 22.2327146172 583.52324826 19.8384222738 311.25800464 21.2065893271 c 2
 83.8002320186 22.2327146172 l 1
 64.9879350348 31.125800464 l 2
 41.0450116009 42.4131786543 21.8906728538 61.5675174014 10.6032946636 85.5104408353 c 2
 1.71020881671 104.322737819 l 1
 1.71020881671 596.86287703 l 1
 1.71020881671 1089.40301624 l 1
 9.57716937355 1106.16306265 l 2
 24.2849651972 1138.3149884 44.123387471 1157.46932715 74.223062645 1168.41466357 c 0
569 952 m 0
 541.294921875 959.182617188 571.891708334 955.384850484 399.504779582 956.690812065 c 2
 218.90625 956.05859375 l 1
 218.906728538 598.573085847 l 1
 218.90625 240.086914062 l 5
 402.925197216 240.113317865 l 2
 441.248318889 240.411552275 471.640289838 240.661029611 496 240.939689385 c 0
 583.391824088 241.939396927 593.145086003 243.314698732 612.938839907 248.664361949 c 0
 740.17837587 284.236705336 825.346774942 384.454941995 850.315823666 528.112482599 c 0
 858.524825986 574.28812065 855.526723707 657.08313853 843.817030162 701.869698376 c 0
 810.638979118 828.767192575 685.978515625 921.55859375 569 952 c 0
EndSplineSet
EndChar

StartChar: e
Encoding: 101 101 49
Width: 988
VWidth: 0
Flags: HW
LayerCount: 2
Fore
SplineSet
71.1446867749 1168.07262181 m 0
 81.7479814385 1171.83508121 141.605290023 1172.51916473 424.131786543 1172.17712297 c 2
 764.463341067 1171.49303944 l 1
 778.829095128 1163.62607889 l 2
 801.745893271 1151.65461717 816.453689095 1136.60477958 827.741067285 1114.37206497 c 0
 836.634153132 1096.24385151 838.002320186 1089.745058 838.002320186 1065.11805104 c 0
 838.002320186 1040.14900232 836.634153132 1034.67633411 826.714941995 1015.52199536 c 0
 819.190023202 1000.47215777 810.296937355 989.868863109 798.667517401 980.975777262 c 0
 775.184491628 963.238598221 776.516345547 959.003633129 663 958.009377126 c 0
 621.094759372 957.642341552 563.538447592 957.716937355 483.305011601 957.716937355 c 2
 215.486310905 957.716937355 l 1
 215.486310905 832.871693735 l 1
 215.486328125 707.368164062 l 5
 438.839582367 707.342366589 l 2
 692.634570766 705.974199536 679.294941995 707.342366589 712.815034803 676.900649652 c 0
 738.12612529 653.983851508 747.019211137 632.435220418 747.3612529 596.86287703 c 0
 747.3612529 574.630162413 745.651044084 566.421160093 739.15225058 552.397447796 c 0
 728.206914153 530.848816705 707.342366589 509.984269142 685.793735499 499.038932715 c 2
 685.793735499 499.038932715 653 493 645.69140625 492.830078125 c 24
 557 489 442.26 489.803805104 442.26 489.803805104 c 1
 215.486328125 489.77734375 l 1
 215.486310905 364.274477958 l 1
 215.486328125 238.771484375 l 1
 486.725429234 238.745150812 l 1
 486.725429234 238.745150812 606 240 711.622070312 235.71875 c 24
 720 235 777.118886311 228.141856148 777.118886311 228.141856148 c 2
 801.061809745 216.512436195 825.004733179 190.517262181 832.529651972 168.626589327 c 0
 839.370487239 148.104083527 839.370487239 111.847656613 832.529651972 91.3251508121 c 0
 825.004733179 69.4344779582 801.061809745 43.4393039443 777.118886311 31.8098839907 c 2
 757.6225058 22.2327146172 l 1
 419.001160093 22.2327146172 l 1
 80.3798143852 22.2327146172 l 1
 64.6458932715 30.099675174 l 2
 41.3870533643 41.7290951276 23.2588399072 58.4891415313 11.9714617169 79.0116473318 c 2
 1.71020881671 97.4819025522 l 1
 0.684083526682 590.022041763 l 2
 0 950.192018561 0.684083526682 1086.32464037 3.42041763341 1096.24385151 c 0
 12.6555452436 1128.0537355 38.9927610209 1156.44320186 71.1446867749 1168.07262181 c 0
EndSplineSet
EndChar

StartChar: f
Encoding: 102 102 50
Width: 988
VWidth: 0
Flags: HW
LayerCount: 2
Fore
SplineSet
70.8026450116 1168.07262181 m 0
 77.9370421166 1170.74802072 104.254124227 1171.82486255 201 1172.15567036 c 0
 252.678180621 1172.33237605 324.451904904 1172.29621482 424.131786543 1172.17712297 c 2
 764.463341067 1171.49303944 l 1
 778.829095128 1163.62607889 l 2
 801.745893271 1151.65461717 816.453689095 1136.60477958 827.741067285 1114.37206497 c 0
 836.634153132 1096.24385151 838.002320186 1089.745058 838.002320186 1065.11805104 c 0
 838.002320186 1040.14900232 836.634153132 1034.67633411 826.714941995 1015.52199536 c 0
 819.190023202 1000.47215777 810.296937355 989.868863109 798.667517401 980.975777262 c 0
 767.199675174 957.032853828 777.802969838 957.716937355 481.594802784 957.716937355 c 2
 215.486310905 957.716937355 l 1
 215.486310905 832.871693735 l 1
 215.486328125 707.368164062 l 1
 438.839582367 707.342366589 l 2
 692.634570766 705.974199536 679.294941995 707.342366589 712.815034803 676.900649652 c 0
 738.12612529 653.983851508 747.019211137 632.435220418 747.3612529 596.86287703 c 0
 747.3612529 574.630162413 745.651044084 566.421160093 739.15225058 552.397447796 c 0
 728.206914153 530.848816705 707.342366589 509.984269142 685.793735499 499.038932715 c 2
 685.793735499 499.038932715 664 493 656.69140625 492.830078125 c 24
 568 489 442.259765625 489.803710938 442.259765625 489.803710938 c 5
 215.486328125 489.77734375 l 1
 215.486310905 299.97062645 l 2
 215.486310905 187.096844548 214.118143852 106.374988399 212.065893271 99.1921113689 c 0
 202.830765661 65.3299767981 171.020881671 35.2303016241 134.422412993 25.3110904872 c 0
 107.401113689 18.1282134571 87.5626914153 20.5225058005 59.173225058 34.5462180974 c 0
 34.5462180974 46.5176798144 16.4180046404 66.3561020882 6.49879350348 92.3512761021 c 0
 0.342041763341 109.111322506 0 124.161160093 0 598.231044084 c 0
 0 1133.86844548 -1.36816705336 1100.0063109 20.1804640371 1129.42190255 c 0
 32.1519257541 1145.49786543 52.6744315545 1161.23178654 70.8026450116 1168.07262181 c 0
EndSplineSet
EndChar

StartChar: g
Encoding: 103 103 51
Width: 1196
VWidth: 0
Flags: HW
LayerCount: 2
Fore
SplineSet
543.846403712 1189.96329466 m 0
 631.067053364 1198.51433875 733.679582367 1183.1224594 818.163897912 1149.26032483 c 0
 915.303758701 1110.60960557 1019.28445476 1031.59795824 1035.01837587 984.396194896 c 0
 1044.59554524 956.006728538 1042.88533643 927.617262181 1029.88774942 901.622088167 c 0
 1011.4174942 863.9974942 975.845150812 840.738654292 935.826264501 840.396612529 c 0
 902.99025522 840.054570766 884.177958237 848.263573086 847.921531323 879.047331787 c 0
 774.382552204 940.956890951 702.553781903 969.688399072 612.254756381 973.792900232 c 0
 501.775266821 978.581484919 404.635406032 939.930765661 326.649883991 860.235034803 c 0
 185.044593968 715.55136891 182.992343387 486.383387471 322.203341067 339.989512761 c 0
 378.640232019 280.816287703 442.602041763 245.243944316 521.613689095 228.825939675 c 0
 570.18361949 218.564686775 650.221392111 220.958979118 697.765197216 233.614524362 c 0
 736.757958237 244.217819026 777.118886311 260.977865429 807.218561485 279.44812065 c 2
 829.451276102 293.129791183 l 1
 830.477401392 385.823109049 l 1
 831.161484919 478.516426914 l 1
 681.347192575 479.542552204 l 1
 531.190858469 480.568677494 l 1
 507.589976798 492.540139211 l 2
 466.887006961 513.404686775 445.33837587 552.055406032 449.100835267 597.204918794 c 0
 452.179211137 636.539721578 473.043758701 666.981438515 508.958143852 684.767610209 c 2
 531.874941995 696.054988399 l 1
 749.071461717 696.054988399 l 1
 966.267981439 696.054988399 l 1
 986.106403712 686.135777262 l 2
 1009.36524362 674.164315545 1027.15141531 656.036102088 1038.4387935 631.409095128 c 2
 1046.64779582 613.964965197 l 1
 1046.64779582 415.238700696 l 1
 1046.64779582 216.512436195 l 1
 1036.04450116 195.647888631 l 2
 1015.52199536 154.260835267 929.327470998 91.3251508121 843.474988399 54.7266821346 c 0
 761.042923434 19.4963805104 689.898236659 5.47266821346 596.86287703 5.13062645012 c 0
 528.454524362 5.13062645012 505.195684455 7.86696055684 446.36450116 22.9167981439 c 0
 312.968213457 57.120974478 194.279721578 139.21099768 111.163573086 254.821113689 c 0
 84.4843155452 291.419582367 45.4915545244 369.063062645 31.125800464 413.186450116 c 0
 -24.9690487239 584.54937355 1.71020881671 778.145011601 102.270487239 927.275220418 c 0
 203.514849188 1077.77359629 363.590394432 1173.20324826 543.846403712 1189.96329466 c 0
EndSplineSet
EndChar

StartChar: h
Encoding: 104 104 52
Width: 1117
VWidth: 0
Flags: HW
LayerCount: 2
Fore
SplineSet
64.9879350348 1164.65220418 m 0
 81.4059396752 1172.17712297 87.5626914153 1173.20324826 111.163573086 1172.51916473 c 0
 154.260835267 1170.80895592 187.438886311 1149.94440835 205.909141531 1112.31981439 c 2
 213.776102088 1096.24385151 l 1
 214.802227378 902.306171694 l 1
 215.486310905 708.026450116 l 1
 483.989095128 708.026450116 l 1
 752.149837587 708.026450116 l 1
 753.175962877 898.88575406 l 1
 754.202088167 1089.40301624 l 1
 765.489466357 1112.31981439 l 2
 784.985846868 1151.99665893 819.532064965 1173.20324826 864.681577726 1173.20324826 c 0
 905.384547564 1173.20324826 944.377308585 1147.89215777 961.479396752 1110.26756381 c 0
 967.636148492 1096.92793503 967.978190255 1078.11563805 967.978190255 597.546960557 c 2
 967.978190255 98.8500696056 l 1
 959.427146172 82.0900232019 l 2
 939.930765661 43.7813457077 905.0425058 22.5747563805 861.945243619 22.2327146172 c 0
 829.451276102 22.2327146172 804.482227378 33.5200928074 781.907470998 58.4891415313 c 0
 753.51800464 89.9569837587 754.54412993 82.4320649652 753.175962877 298.602459397 c 2
 752.149837587 489.119721578 l 1
 483.989095128 489.119721578 l 1
 215.486310905 489.119721578 l 1
 215.486310905 300.312668213 l 2
 215.486310905 187.096844548 214.118143852 106.374988399 212.065893271 99.1921113689 c 0
 199.068306265 51.9903480278 145.36774942 16.075962877 96.7978190255 22.2327146172 c 0
 69.4344779582 25.6531322506 38.6507192575 42.7552204176 23.2588399072 63.2777262181 c 0
 -1.71020881671 95.7716937355 -0.342041763341 60.199350348 0.684083526682 605.755962877 c 2
 1.71020881671 1096.24385151 l 1
 10.9453364269 1113.34593968 l 2
 22.5747563805 1135.57865429 41.7290951276 1153.70686775 64.9879350348 1164.65220418 c 0
EndSplineSet
EndChar

StartChar: i
Encoding: 105 105 53
Width: 365
VWidth: 0
Flags: HW
LayerCount: 2
Fore
SplineSet
78.6696055684 1176.96570766 m 0
 83.4581902552 1178.67591647 98.8500696056 1179.36 112.873781903 1179.01795824 c 0
 155.62900232 1177.64979118 189.833178654 1155.41707657 207.277308585 1116.76635731 c 2
 215.486310905 1098.98018561 l 1
 214.802227378 601.651461717 l 1
 213.776102088 104.322737819 l 1
 205.225058005 87.9047331787 l 2
 194.963805104 67.7242691415 172.389048724 46.5176798144 151.182459397 36.5984686775 c 0
 138.868955916 30.7837587007 128.607703016 29.073549884 107.743155452 29.073549884 c 0
 82.7741067285 29.073549884 78.3275638051 30.4417169374 58.147099768 41.3870533643 c 0
 43.4393039443 49.2540139211 31.4678422274 59.173225058 23.6008816705 69.7765197216 c 0
 -1.71020881671 102.954570766 0 65.3299767981 0 605.755962877 c 0
 0 1085.29851508 0 1091.11322506 6.84083526682 1109.58348028 c 0
 18.4702552204 1140.70928074 45.8335962877 1166.36241299 78.6696055684 1176.96570766 c 0
EndSplineSet
EndChar

StartChar: j
Encoding: 106 106 54
Width: 943
VWidth: 0
Flags: HW
LayerCount: 2
Fore
SplineSet
662.534895592 1176.62366589 m 0
 696.397030162 1184.83266821 750.928710938 1175.53125 774 1146 c 1
 799 1114 796 1141 794.44140625 730.946289062 c 0
 792.919018932 330.418204529 794.022945594 331.394861103 774.382552204 266.792575406 c 0
 732.99549884 130.659953596 629.014802784 41.0450116009 482.962969838 15.3918793503 c 0
 444.654292343 8.55104408353 352.303016241 6.15675174014 312.968213457 10.6032946636 c 0
 223.011229698 21.5486310905 137.500788863 65.6720185615 59.173225058 141.26324826 c 0
 11.2873781903 187.780928074 1.71020881671 204.540974478 1.71020881671 243.191693735 c 0
 1.71020881671 266.108491879 3.07837587007 271.923201856 13.6816705336 292.78774942 c 0
 34.2041763341 332.806635731 73.5389791183 355.039350348 117.662366589 351.618932715 c 0
 147.077958237 349.224640371 169.652714617 336.569095128 203.514849188 303.733085847 c 0
 269.186867749 240.455359629 304.07512761 225.063480278 381.034524362 225.405522042 c 0
 494.592389791 225.747563805 545.872070312 255.84765625 571.525390625 338.963867188 c 0
 576.314453125 355.381835938 576.34037123 397.110487239 578.050580046 726.8387471 c 2
 578.050580046 726.8387471 579 1015 579.760742188 1084.24414062 c 4
 579.845986367 1092.00322126 588.65387471 1115.05614849 588.65387471 1115.05614849 c 2
 603.361670534 1145.83990719 630.285663176 1168.80567015 662.534895592 1176.62366589 c 0
EndSplineSet
EndChar

StartChar: k
Encoding: 107 107 55
Width: 1090
VWidth: 0
Flags: HW
LayerCount: 2
Fore
SplineSet
82.7741067285 1174.91345708 m 0
 131.344037123 1188.59512761 185.728677494 1163.28403712 208.987517401 1116.42431555 c 2
 217.196519722 1099.66426914 l 1
 218.906728538 878.021206497 l 1
 220.616937355 656.036102088 l 1
 461.75638051 906.410672854 l 2
 683.741484919 1136.60477958 704.606032483 1157.46932715 724.78649652 1167.38853828 c 0
 766.173549884 1187.56900232 814.743480278 1179.36 847.237447796 1146.86603248 c 0
 883.151832947 1110.95164733 889.308584687 1048.35800464 860.577076566 1009.70728538 c 0
 853.394199536 1000.13011601 707.000324826 846.895406032 573.604037123 709.052575406 c 2
 536.321484919 670.743897912 l 1
 729.233039443 436.445290023 l 2
 834.923944316 307.15350348 925.907053364 193.937679814 931.379721578 184.360510441 c 0
 939.588723898 168.626589327 940.614849188 163.153921114 940.614849188 134.764454756 c 0
 940.614849188 107.059071926 939.246682135 99.8761948956 932.405846868 85.8524825986 c 0
 921.460510441 64.6458932715 893.75512761 39.6768445476 873.23262181 32.8360092807 c 0
 840.054570766 21.5486310905 799.693642691 27.3633410673 772.672343387 47.5438051044 c 0
 765.147424594 52.6744315545 675.874524362 158.70737819 574.28812065 282.52649652 c 0
 472.701716937 406.687656613 388.217401392 509.300185615 386.849234339 510.668352668 c 0
 385.481067285 512.036519722 347.172389791 474.753967517 301.680835267 427.552204176 c 2
 219.248770302 341.699721578 l 1
 218.222645012 223.011229698 l 1
 217.196519722 104.322737819 l 1
 207.961392111 86.8786078886 l 2
 196.331972158 64.6458932715 168.626589327 39.6768445476 148.104083527 32.8360092807 c 0
 129.97587007 26.6792575406 96.7978190255 25.6531322506 77.9855220418 30.7837587007 c 0
 48.5699303944 38.9927610209 15.049837587 72.5128538283 6.84083526682 101.928445476 c 0
 4.44654292343 110.479489559 3.42041763341 278.764037123 3.42041763341 605.07187935 c 0
 3.42041763341 1090.08709977 3.42041763341 1095.55976798 10.2612529002 1110.95164733 c 0
 24.9690487239 1143.78765661 49.5960556845 1165.67832947 82.7741067285 1174.91345708 c 0
EndSplineSet
EndChar

StartChar: l
Encoding: 108 108 56
Width: 916
VWidth: 0
Flags: HW
LayerCount: 2
Fore
SplineSet
70.4606032483 1174.22937355 m 0
 92.6933178654 1181.07020882 121.082784223 1181.41225058 143.657540603 1174.57141531 c 0
 158.023294664 1170.46691415 166.574338747 1164.65220418 182.992343387 1148.23419954 c 0
 218.564686775 1112.66185615 215.486310905 1155.75911833 215.486310905 670.059814385 c 2
 215.486310905 246.612111369 l 1
 450.811044084 245.585986079 l 1
 685.793735499 244.559860789 l 1
 704.948074246 235.666774942 l 2
 728.206914153 224.721438515 748.729419954 205.225058005 758.64863109 184.360510441 c 0
 764.805382831 171.704965197 766.173549884 162.81187935 766.173549884 136.474663573 c 0
 766.173549884 108.427238979 764.805382831 101.586403712 757.280464037 86.5365661253 c 0
 747.019211137 65.6720185615 727.180788863 46.5176798144 704.948074246 36.2564269142 c 0
 689.214153132 29.073549884 688.530069606 29.073549884 384.796983759 29.073549884 c 2
 80.3798143852 29.073549884 l 1
 60.8834338747 38.6507192575 l 2
 39.6768445476 48.9119721578 21.5486310905 67.0401856148 9.57716937355 89.6149419954 c 2
 1.71020881671 104.322737819 l 1
 0.684083526682 598.573085847 l 2
 -0.342041763341 1164.99424594 -3.42041763341 1112.31981439 32.4939675174 1148.23419954 c 0
 47.8858468677 1163.62607889 57.8050580046 1170.46691415 70.4606032483 1174.22937355 c 0
EndSplineSet
EndChar

StartChar: m
Encoding: 109 109 57
Width: 1288
VWidth: 0
Flags: HW
LayerCount: 2
Fore
SplineSet
74.223062645 1178.67591647 m 0
 92.0092343387 1184.83266821 128.94974478 1184.49062645 148.104083527 1177.99183295 c 0
 156.65512761 1175.25549884 170.336798144 1166.70445476 178.545800464 1159.86361949 c 0
 186.754802784 1152.68074246 276.36974478 1033.65020882 377.956148492 895.123294664 c 0
 479.542552204 756.59638051 563.684825986 643.380556845 564.710951276 643.380556845 c 0
 566.079118329 643.038515081 652.615684455 755.912296984 757.6225058 893.75512761 c 0
 862.629327146 1031.25591647 952.244269142 1148.23419954 956.690812065 1153.02278422 c 0
 973.450858469 1171.15099768 997.735823666 1181.07020882 1028.1775406 1182.78041763 c 0
 1052.80454756 1184.14858469 1058.27721578 1183.1224594 1077.08951276 1174.91345708 c 0
 1100.69039443 1164.31016241 1122.23902552 1143.10357309 1132.50027842 1120.87085847 c 0
 1138.65703016 1106.84714617 1138.99907193 1090.77118329 1138.99907193 608.834338747 c 2
 1138.99907193 111.163573086 l 1
 1130.79006961 94.0614849188 l 2
 1120.18677494 71.8287703016 1100.69039443 52.3323897912 1077.43155452 41.3870533643 c 0
 1062.38171694 34.5462180974 1053.14658933 32.8360092807 1032.96612529 32.4939675174 c 0
 1000.47215777 32.4939675174 975.503109049 43.7813457077 952.928352668 68.7503944316 c 0
 923.512761021 101.586403712 925.565011601 76.9593967517 923.512761021 434.05099768 c 2
 921.802552204 750.097587007 l 1
 781.907470998 566.079118329 l 2
 704.606032483 465.176798144 636.881763341 378.982273782 631.409095128 374.535730858 c 0
 610.544547564 359.143851508 597.204918794 354.697308585 569.1574942 352.987099768 c 0
 544.188445476 351.618932715 539.057819026 352.645058005 520.245522042 360.854060325 c 0
 508.274060325 366.326728538 493.908306265 376.245939675 486.383387471 384.454941995 c 0
 479.542552204 391.979860789 416.606867749 475.780092807 347.172389791 570.525661253 c 2
 220.616937355 742.572668213 l 1
 218.906728538 426.86812065 l 1
 217.196519722 111.163573086 l 1
 209.671600928 95.7716937355 l 2
 189.491136891 54.7266821346 153.57675174 32.4939675174 109.453364269 32.8360092807 c 0
 64.9879350348 33.1780510441 30.4417169374 55.7528074246 11.6294199536 96.7978190255 c 2
 1.71020881671 118.004408353 l 1
 1.71020881671 608.834338747 l 1
 1.71020881671 1099.66426914 l 1
 9.57716937355 1116.42431555 l 2
 23.9429234339 1147.89215777 45.149512761 1168.07262181 74.223062645 1178.67591647 c 0
EndSplineSet
EndChar

StartChar: n
Encoding: 110 110 58
Width: 1159
VWidth: 0
Flags: HW
LayerCount: 2
Fore
SplineSet
76.6173549884 1179.70204176 m 0
 105.348863109 1188.25308585 145.709791183 1182.09633411 170.336798144 1165.3362877 c 0
 176.151508121 1161.23178654 318.782923434 996.025614849 486.725429234 797.983433875 c 2
 791.826682135 438.497540603 l 1
 793.536890951 770.620092807 l 1
 795.247099768 1103.08468677 l 1
 804.824269142 1122.58106729 l 2
 822.610440835 1159.17953596 854.762366589 1180.38612529 896.149419954 1182.78041763 c 0
 916.671925754 1183.80654292 925.565011601 1182.78041763 941.298932715 1176.62366589 c 0
 965.583897912 1167.73058005 989.184779582 1145.15582367 1000.47215777 1120.87085847 c 2
 1009.02320186 1103.08468677 l 1
 1009.02320186 607.12412993 l 2
 1009.02320186 125.187285383 1008.68116009 110.821531323 1002.18236659 96.7978190255 c 0
 992.605197216 75.5912296984 967.294106729 49.9380974478 946.429559165 40.7029698376 c 0
 933.089930394 34.5462180974 922.144593968 32.8360092807 902.99025522 32.4939675174 c 0
 880.757540603 32.4939675174 874.2587471 33.8621345708 854.762366589 43.4393039443 c 0
 832.529651972 54.3846403712 830.477401392 56.7789327146 550.345197216 386.849234339 c 0
 395.400278422 569.499535963 257.899489559 731.96937355 244.559860789 747.703294664 c 2
 220.616937355 776.092761021 l 1
 218.906728538 447.048584687 l 2
 217.538561485 174.783341067 216.170394432 115.952157773 212.407935035 106.032946636 c 0
 193.253596288 58.8311832947 156.997169374 33.1780510441 109.111322506 32.8360092807 c 0
 85.8524825986 32.4939675174 80.7218561485 33.8621345708 59.5152668213 44.4654292343 c 0
 42.7552204176 53.0164733179 32.4939675174 61.2254756381 23.6008816705 73.196937355 c 0
 -1.71020881671 106.717030162 0 68.7503944316 0 606.782088167 c 0
 0 1140.02519722 -1.36816705336 1109.58348028 21.5486310905 1139.68315545 c 0
 33.8621345708 1156.10116009 59.8573085847 1174.91345708 76.6173549884 1179.70204176 c 0
EndSplineSet
EndChar

StartChar: o
Encoding: 111 111 59
Width: 1367
VWidth: 0
Flags: HW
LayerCount: 2
Fore
SplineSet
521.613689095 1212.53805104 m 0
 567.789327146 1220.06296984 681.347192575 1217.32663573 726.8387471 1207.40742459 c 0
 920.434385151 1166.36241299 1075.37930394 1045.9637123 1159.17953596 872.20649652 c 0
 1181.75429234 825.004733179 1196.80412993 781.565429234 1207.74946636 731.96937355 c 0
 1218.01071926 685.109651972 1220.74705336 566.763201856 1212.53805104 514.772853828 c 0
 1191.67350348 382.060649652 1131.13211137 265.082366589 1034.33429234 170.678839907 c 0
 942.325058005 81.4059396752 829.451276102 24.9690487239 702.895823666 5.13062645012 c 0
 650.563433875 -3.07837587007 535.979443155 -0.342041763341 488.093596288 9.91921113689 c 0
 243.875777262 63.2777262181 62.9356844548 244.901902552 11.2873781903 488.777679814 c 0
 3.07837587007 527.428399072 2.05225058005 539.399860789 2.05225058005 603.703712297 c 0
 1.71020881671 689.898236659 8.20900232019 732.653457077 33.1780510441 807.218561485 c 0
 46.5176798144 846.895406032 86.5365661253 925.222969838 112.189698376 961.137354988 c 0
 138.526914153 998.077865429 189.149095128 1052.4625058 224.037354988 1080.85197216 c 0
 307.495545244 1148.91828306 409.766032483 1194.40983759 521.613689095 1212.53805104 c 0
686.819860789 993.289280742 m 0
 653.983851508 1000.13011601 593.100417633 1002.52440835 562.658700696 998.419907193 c 0
 474.411925754 986.448445476 394.032111369 947.113642691 334.174802784 886.914292343 c 0
 275.34361949 827.399025522 241.823526682 765.489466357 225.405522042 686.135777262 c 0
 216.170394432 642.354431555 215.486310905 578.734663573 223.353271462 536.663526682 c 0
 250.716612529 394.716194896 349.224640371 281.50037123 485.015220418 236.008816705 c 0
 739.836334107 150.49837587 1002.18236659 339.647470998 1002.18236659 609.17638051 c 0
 1002.18236659 794.905058005 870.496287703 955.322645012 686.819860789 993.289280742 c 0
EndSplineSet
EndChar

StartChar: p
Encoding: 112 112 60
Width: 1052
VWidth: 0
Flags: HW
LayerCount: 2
Fore
SplineSet
70.802734375 1175.96582031 m 0
 86.5361328125 1182.12207031 98.1659860789 1183.1224594 324.939675174 1182.43837587 c 2
 562.658700696 1181.75429234 l 1
 596.178793503 1172.51916473 l 2
 740.862459397 1132.84232019 853.394199536 1021.6787471 891.70287703 880.757540603 c 0
 900.595962877 848.605614849 900.93800464 842.448863109 900.93800464 774.724593968 c 0
 900.93800464 696.054988399 898.543712297 682.715359629 875.968955916 623.884176334 c 0
 831.161484919 507.589976798 722.392204176 411.476241299 600.283294664 380.008399072 c 0
 553.765614849 367.694895592 526.402273782 366.326728538 370.431229698 365.984686775 c 2
 219.248770302 365.984686775 l 1
 218.222645012 238.403109049 l 1
 218.222645012 238.403109049 221 161 217.196519722 111.163573086 c 24
 217 103 207.9609375 82.376953125 207.9609375 82.376953125 c 2
 186.754882812 42.7001953125 152.892668213 32.4939675174 109.453364269 32.8360092807 c 0
 64.9879350348 33.1780510441 31.44140625 42.7529296875 12.6298828125 83.7978515625 c 2
 12.6298828125 83.7978515625 2.05078125 111 1.7099609375 122.004882812 c 0
 -4.20703125 312.944335938 1.71020881671 608.834338747 1.71020881671 608.834338747 c 1
 1.71020881671 608.834338747 -4.6630859375 904.017578125 0.7099609375 1095.6640625 c 0
 1 1106 10 1128 10 1128 c 2
 22.6552734375 1153.99511719 44.77734375 1165.78222656 70.802734375 1175.96582031 c 0
557.84375 959.033203125 m 0
 557.84375 959.033203125 523.98455065 968.647732409 513.875 969.267578125 c 0
 453 973 375.561523438 972 375.561523438 972 c 5
 218.90625 972 l 5
 218.906728538 776.776844548 l 1
 218.906728538 584.891415313 l 1
 369.405104408 584.891415313 l 2
 465.176798144 584.891415313 526.060546875 584.259765625 537.689453125 586.654296875 c 0
 569.841796875 593.15234375 603.703712297 613.964965197 629.014802784 638.934013921 c 0
 657.062227378 666.639396752 671.770023202 691.950487239 680.663109049 727.180788863 c 0
 697.423155452 792.168723898 681.347192575 856.130533643 635.855638051 904.358422274 c 0
 611.22863109 931.037679814 591.022460938 947.061523438 557.84375 959.033203125 c 0
EndSplineSet
EndChar

StartChar: q
Encoding: 113 113 61
Width: 1367
VWidth: 0
Flags: HW
LayerCount: 2
Fore
SplineSet
542.136194896 1215.27438515 m 0
 569.1574942 1218.69480278 661.850812065 1216.98459397 693.318654292 1212.53805104 c 0
 949.849976798 1176.28162413 1151.99665893 986.106403712 1208.09150812 728.548955916 c 0
 1214.93234339 696.739071926 1215.95846868 683.399443155 1215.95846868 608.834338747 c 0
 1215.95846868 534.269234339 1214.93234339 520.929605568 1208.09150812 489.119721578 c 0
 1190.98941995 410.792157773 1158.15341067 331.438468677 1117.10839907 270.555034803 c 2
 1097.95406032 241.823526682 l 1
 1132.84232019 205.567099768 l 2
 1175.93958237 160.75962877 1184.83266821 142.973457077 1184.83266821 106.032946636 c 0
 1184.83266821 75.249187935 1177.30774942 55.7528074246 1156.10116009 32.8360092807 c 0
 1133.86844548 8.55104408353 1113.00389791 0 1077.77359629 0 c 0
 1036.72858469 0.342041763341 1026.46733179 5.8147099768 977.897401392 53.3585150812 c 2
 937.878515081 93.0353596288 l 1
 907.778839907 75.9332714617 l 2
 845.185197216 40.7029698376 762.753132251 12.6555452436 692.292529002 3.42041763341 c 0
 672.454106729 0.684083526682 636.197679814 -0.342041763341 591.390208817 0.684083526682 c 0
 530.848816705 2.05225058005 516.141020882 3.42041763341 480.910719258 11.6294199536 c 0
 405.319489559 29.073549884 337.595220418 57.4630162413 277.737911833 96.7978190255 c 0
 125.187285383 196.674013921 25.6531322506 355.723433875 3.42041763341 534.953317865 c 0
 -2.73633410673 583.181206497 1.02612529002 682.373317865 10.2612529002 726.8387471 c 0
 27.0212993039 805.508352668 59.8573085847 882.809791183 106.032946636 951.902227378 c 0
 132.02812065 990.894988399 191.543387471 1055.88292343 227.115730858 1083.93034803 c 0
 318.098839907 1155.41707657 425.499953596 1200.56658933 542.136194896 1215.27438515 c 0
682.715359629 993.631322506 m 0
 654.325893271 999.103990719 598.91512761 1002.52440835 576.34037123 1000.13011601 c 0
 432.340788863 984.396194896 316.046589327 903.332296984 254.821113689 775.750719258 c 0
 153.57675174 564.368909513 260.977865429 311.25800464 484.331136891 236.008816705 c 0
 571.20974478 206.593225058 679.979025522 210.013642691 757.280464037 244.217819026 c 2
 777.802969838 253.452946636 l 1
 704.263990719 327.676009281 l 2
 618.411508121 414.212575406 613.964965197 420.71136891 616.359257541 464.834756381 c 0
 617.727424594 495.960556845 626.278468677 515.798979118 647.143016241 536.663526682 c 0
 670.401856148 559.580324826 687.503944316 566.079118329 723.418329466 566.079118329 c 0
 769.251925754 566.079118329 773.698468677 563.000742459 862.629327146 475.096009281 c 0
 904.358422274 433.708955916 939.588723898 400.188863109 940.956890951 400.188863109 c 0
 942.667099768 400.188863109 950.876102088 413.528491879 959.085104408 430.288538283 c 0
 996.709698376 504.853642691 1010.04932715 589.68 997.051740139 670.401856148 c 0
 983.712111369 751.807795824 946.087517401 825.346774942 887.940417633 884.177958237 c 0
 830.135359629 941.983016241 762.069048724 978.581484919 682.715359629 993.631322506 c 0
EndSplineSet
EndChar

StartChar: r
Encoding: 114 114 62
Width: 1090
VWidth: 0
Flags: HW
LayerCount: 2
Fore
SplineSet
83.8002320186 1183.80654292 m 0
 89.6149419954 1185.17470998 205.909141531 1186.20083527 342.383805104 1186.54287703 c 0
 551.029280742 1186.88491879 595.83675174 1186.20083527 621.147842227 1181.75429234 c 0
 773.014385151 1155.41707657 889.308584687 1049.38412993 931.037679814 897.85962877 c 0
 939.930765661 866.391786543 943.351183295 780.197262181 937.194431555 742.914709977 c 0
 918.724176334 628.330719258 845.527238979 525.376148492 741.546542923 468.597215777 c 2
 725.81262181 459.70412993 l 1
 825.004733179 331.780510441 l 2
 879.731415313 261.319907193 927.959303944 195.989930394 932.405846868 186.412761021 c 0
 942.325058005 165.548213457 943.351183295 129.291786543 935.142180974 105.006821346 c 0
 927.959303944 84.1422737819 902.99025522 56.7789327146 881.099582367 45.4915545244 c 0
 846.553364269 28.047424594 799.693642691 32.1519257541 769.251925754 55.7528074246 c 0
 761.042923434 61.9095591647 697.765197216 140.921206497 617.385382831 244.559860789 c 2
 479.884593968 423 l 5
 349.56640625 423 l 5
 219.249023438 423 l 5
 218.222645012 270.897076566 l 1
 217.196519722 117.320324826 l 1
 205.225058005 93.7194431555 l 2
 163.83800464 12.3135034803 50.2801392111 15.3918793503 10.6032946636 99.1921113689 c 2
 1.71020881671 118.004408353 l 1
 1.71020881671 610.544547564 l 1
 1.71020881671 1103.08468677 l 1
 10.6032946636 1121.89698376 l 2
 24.9690487239 1151.99665893 54.0425986079 1176.28162413 83.8002320186 1183.80654292 c 0
609.860464037 961.137354988 m 0
 588.65387471 967.636148492 578.050580046 967.978190255 403.267238979 967.978190255 c 2
 218.906728538 967.978190255 l 1
 218.906728538 803.798143852 l 1
 218.906728538 639.618097448 l 1
 396.768445476 639.618097448 l 2
 513.062645012 639.618097448 580.44487239 640.986264501 592.416334107 643.380556845 c 0
 636.197679814 652.615684455 678.268816705 682.373317865 701.185614849 720.339953596 c 0
 755.57025522 810.638979118 710.078700696 930.011554524 609.860464037 961.137354988 c 0
EndSplineSet
EndChar

StartChar: s
Encoding: 115 115 63
Width: 1046
VWidth: 0
Flags: HW
LayerCount: 2
Fore
SplineSet
347.172389791 1213.9062181 m 0
 381.376566125 1218.01071926 475.438051044 1218.35276102 509.642227378 1214.24825986 c 0
 551.713364269 1209.11763341 618.069466357 1192.01554524 665.271229698 1174.22937355 c 0
 728.89099768 1149.94440835 794.220974478 1117.7924826 811.323062645 1102.05856148 c 0
 857.498700696 1059.30334107 857.840742459 986.448445476 812.007146172 944.035266821 c 0
 789.090348028 922.828677494 769.593967517 915.303758701 738.810208817 915.303758701 c 0
 714.525243619 915.303758701 710.762784223 916.329883991 670.401856148 935.142180974 c 0
 577.36649652 978.581484919 530.848816705 993.289280742 467.913132251 999.103990719 c 0
 423.447703016 1003.20849188 366.668770302 999.103990719 334.858886311 989.868863109 c 0
 280.816287703 973.792900232 258.241531323 944.377308585 254.137030162 883.49387471 c 0
 251.400696056 846.553364269 256.531322506 828.767192575 276.36974478 806.876519722 c 0
 304.417169374 775.408677494 359.827935035 754.202088167 494.250348028 723.418329466 c 0
 699.133364269 676.216566125 817.479814385 603.01962877 870.838329466 490.829930394 c 0
 894.097169374 441.575916473 896.83350348 426.184037123 895.465336427 350.934849188 c 0
 894.439211137 285.946914153 894.439211137 285.262830626 882.125707657 250.374570766 c 0
 866.391786543 206.251183295 843.132946636 166.91638051 812.349187935 134.08037123 c 0
 780.197262181 99.5341531323 751.123712297 78.3275638051 706.316241299 56.0948491879 c 0
 637.907888631 22.5747563805 574.972204176 9.23512761021 482.278886311 9.23512761021 c 0
 336.227053364 9.23512761021 213.776102088 45.8335962877 75.5912296984 131.686078886 c 0
 33.1780510441 158.023294664 22.9167981439 167.600464037 10.2612529002 192.227470998 c 0
 1.71020881671 209.671600928 0 217.196519722 0 237.719025522 c 0
 0 269.528909513 7.18287703016 290.051415313 25.9951740139 310.915962877 c 0
 54.3846403712 342.725846868 99.8761948956 356.065475638 136.816705336 344.094013921 c 0
 146.051832947 341.015638051 170.678839907 328.360092807 190.859303944 315.704547564 c 0
 258.583573086 273.633410673 323.913549884 246.612111369 388.901484919 233.614524362 c 0
 432.340788863 225.063480278 532.901067285 225.063480278 566.079118329 233.956566125 c 0
 630.040928074 250.716612529 666.639396752 282.184454756 679.294941995 331.438468677 c 0
 701.527656613 418.659118329 630.382969838 468.939257541 417.290951276 518.193271462 c 0
 272.265243619 551.371322506 192.911554524 586.259582367 132.370162413 643.038515081 c 0
 66.3561020882 704.606032483 36.5984686775 774.724593968 36.5984686775 868.786078886 c 0
 36.5984686775 1042.2012529 126.213410673 1160.54770302 289.367331787 1202.27679814 c 0
 308.17962877 1207.06538283 334.174802784 1212.19600928 347.172389791 1213.9062181 c 0
EndSplineSet
EndChar

StartChar: t
Encoding: 116 116 64
Width: 1148
VWidth: 0
Flags: HW
LayerCount: 2
Fore
SplineSet
78.6696055684 1166.70445476 m 0
 83.4581902552 1168.07262181 275.001577726 1169.0987471 504.511600928 1168.75670534 c 2
 921.802552204 1168.07262181 l 1
 937.878515081 1160.54770302 l 2
 958.401020882 1151.31257541 981.317819026 1128.0537355 991.237030162 1107.5312297 c 0
 1002.52440835 1082.90422274 1002.18236659 1037.41266821 989.868863109 1013.46974478 c 0
 979.607610209 992.263155452 959.769187935 973.450858469 935.826264501 962.505522042 c 2
 918.382134571 954.296519722 l 1
 763.779257541 954.296519722 l 1
 608.834338747 954.296519722 l 1
 608.834338747 530.164733179 l 2
 608.834338747 112.189698376 608.834338747 106.032946636 601.99350348 87.5626914153 c 0
 592.75837587 62.9356844548 571.893828306 40.0188863109 547.950904872 28.3894663573 c 0
 531.190858469 20.1804640371 524.350023202 18.8122969838 499.380974478 18.8122969838 c 0
 474.411925754 18.8122969838 467.913132251 20.1804640371 452.863294664 28.047424594 c 0
 429.94649652 40.0188863109 405.661531323 67.3822273782 397.794570766 89.9569837587 c 0
 391.979860789 106.717030162 391.637819026 130.317911833 391.637819026 530.164733179 c 2
 391.637819026 952.586310905 l 1
 234.298607889 954.296519722 l 2
 78.3275638051 956.006728538 76.9593967517 956.006728538 60.8834338747 963.873689095 c 0
 40.3609280742 974.134941995 19.8384222738 994.657447796 9.57716937355 1015.1799536 c 0
 -1.71020881671 1038.4387935 -1.71020881671 1085.98259861 9.91921113689 1108.21531323 c 0
 24.2849651972 1135.92069606 49.9380974478 1157.81136891 78.6696055684 1166.70445476 c 0
EndSplineSet
EndChar

StartChar: u
Encoding: 117 117 65
Width: 1148
VWidth: 0
Flags: HW
LayerCount: 2
Fore
SplineSet
76.6173549884 1164.99424594 m 0
 127.92361949 1181.07020882 184.360510441 1156.10116009 208.645475638 1106.50510441 c 2
 217.196519722 1089.40301624 l 1
 218.906728538 752.49187935 l 1
 218.906728538 752.49187935 217 547 220.616937355 415.580742459 c 28
 221 406 229.510023202 392.663944316 229.510023202 392.663944316 c 6
 266.450533643 297.576334107 358.801809745 231.220232019 470.649466357 218.564686775 c 0
 601.99350348 204.198932715 738.12612529 284.920788863 777.460928074 400.188863109 c 0
 784.985846868 422.421577726 784.985846868 423.105661253 786.696055684 757.6225058 c 2
 788.406264501 1092.82343387 l 1
 798.667517401 1111.2936891 l 2
 835.950069606 1178.33387471 922.828677494 1189.6212529 974.476983759 1133.86844548 c 0
 1000.47215777 1105.47897912 998.761948956 1134.552529 998.761948956 742.914709977 c 2
 998.761948956 390.953735499 l 1
 990.552946636 357.775684455 l 2
 965.241856148 258.583573086 895.465336427 159.73350348 805.508352668 96.1137354988 c 0
 748.729419954 56.0948491879 677.242691415 25.3110904872 604.04575406 9.57716937355 c 0
 553.765614849 -1.36816705336 448.074709977 -1.36816705336 398.478654292 9.57716937355 c 0
 290.73549884 33.5200928074 209.329559165 77.6434802784 134.764454756 151.866542923 c 0
 56.0948491879 230.878190255 12.997587007 319.124965197 3.07837587007 422.421577726 c 0
 1.02612529002 446.706542923 0 571.893828306 0.684083526682 773.014385151 c 0
 1.71020881671 1065.46009281 2.05225058005 1087.0087239 7.86696055684 1099.66426914 c 0
 22.5747563805 1132.84232019 46.8597215777 1155.75911833 76.6173549884 1164.99424594 c 0
EndSplineSet
EndChar

StartChar: v
Encoding: 118 118 66
Width: 1230
VWidth: 0
Flags: HW
LayerCount: 2
Fore
SplineSet
78.6696055684 1166.70445476 m 0
 83.4581902552 1168.41466357 98.8500696056 1169.0987471 112.873781903 1168.41466357 c 0
 132.370162413 1167.73058005 142.631415313 1165.3362877 155.971044084 1158.49545244 c 0
 187.096844548 1142.76153132 198.384222738 1125.65944316 245.243944316 1024.41508121 c 0
 388.217401392 714.525243619 538.373735499 391.295777262 540.425986079 388.901484919 c 0
 541.794153132 387.533317865 618.753549884 550.345197216 711.788909513 751.123712297 c 0
 895.465336427 1147.89215777 891.360835267 1139.68315545 928.301345708 1158.49545244 c 0
 979.949651972 1184.83266821 1046.98983759 1162.25791183 1072.30092807 1109.92552204 c 0
 1080.85197216 1092.82343387 1081.53605568 1088.71893271 1080.16788863 1057.93517401 c 2
 1078.79972158 1024.41508121 l 1
 856.814617169 545.898654292 l 2
 685.793735499 177.861716937 631.751136891 64.3038515081 621.489883991 52.6744315545 c 0
 593.78450116 21.2065893271 544.530487239 8.89308584687 504.853642691 23.9429234339 c 0
 478.174385151 34.2041763341 454.57350348 56.4368909513 441.575916473 83.4581902552 c 0
 436.445290023 94.7455684455 378.982273782 218.222645012 314.678422274 357.433642691 c 0
 250.374570766 496.644640371 196.331972158 612.254756381 194.963805104 613.964965197 c 0
 193.595638051 616.017215777 149.47225058 710.420742459 97.1398607889 824.320649652 c 0
 2.05225058005 1030.91387471 1.71020881671 1031.25591647 0.684083526682 1057.59313225 c 0
 -0.684083526682 1080.16788863 0.342041763341 1086.32464037 8.20900232019 1103.7687703 c 0
 22.2327146172 1134.21048724 46.8597215777 1156.44320186 78.6696055684 1166.70445476 c 0
EndSplineSet
EndChar

StartChar: w
Encoding: 119 119 67
Width: 1798
VWidth: 0
Flags: HW
LayerCount: 2
Fore
SplineSet
68.4083526682 1162.5999536 m 0
 83.1161484919 1168.41466357 92.6933178654 1169.44078886 112.873781903 1168.75670534 c 0
 145.025707657 1167.04649652 167.258422274 1156.78524362 188.807053364 1132.50027842 c 0
 205.909141531 1113.34593968 192.227470998 1149.60236659 368.036937355 661.166728538 c 0
 414.896658933 530.848816705 453.889419954 424.131786543 454.915545244 424.131786543 c 0
 455.941670534 424.131786543 522.981856148 575.998329466 603.361670534 762.069048724 c 0
 684.083526682 947.797726218 753.51800464 1105.82102088 757.964547564 1113.34593968 c 0
 797.299350348 1183.1224594 896.149419954 1188.59512761 941.298932715 1123.60719258 c 0
 947.113642691 1115.05614849 996.709698376 982.343944316 1070.93276102 776.434802784 c 0
 1136.94682135 593.100417633 1191.33146172 442.602041763 1191.67350348 441.917958237 c 0
 1192.69962877 440.891832947 1191.67350348 438.15549884 1337.38329466 824.320649652 c 0
 1396.21447796 979.265568445 1446.15257541 1110.26756381 1448.54686775 1115.05614849 c 0
 1456.07178654 1129.42190255 1476.93633411 1148.91828306 1495.74863109 1158.8374942 c 0
 1511.14051044 1166.70445476 1517.63930394 1168.07262181 1542.60835267 1168.07262181 c 0
 1567.57740139 1168.07262181 1574.41823666 1166.70445476 1591.17828306 1158.49545244 c 0
 1612.72691415 1147.89215777 1632.22329466 1128.0537355 1642.1425058 1106.50510441 c 0
 1646.93109049 1096.58589327 1648.6412993 1084.61443155 1648.6412993 1062.7237587 c 2
 1648.6412993 1032.96612529 l 1
 1469.06937355 557.186032483 l 2
 1370.21930394 295.182041763 1287.10315545 76.9593967517 1284.02477958 71.4867285383 c 0
 1276.49986079 56.4368909513 1257.00348028 38.6507192575 1237.165058 28.7315081206 c 0
 1190.98941995 5.13062645012 1130.79006961 20.1804640371 1101.71651972 62.9356844548 c 0
 1095.55976798 71.8287703016 1045.9637123 204.540974478 967.978190255 420.71136891 c 0
 899.91187935 609.860464037 843.817030162 764.805382831 843.474988399 765.489466357 c 0
 842.790904872 765.831508121 777.460928074 616.359257541 697.765197216 433.708955916 c 0
 618.411508121 250.716612529 548.977030162 91.3251508121 543.504361949 80.0377726218 c 0
 532.216983759 56.0948491879 513.062645012 36.9405104408 489.461763341 25.9951740139 c 0
 477.490301624 20.5225058005 467.229048724 18.8122969838 444.654292343 18.8122969838 c 0
 419.685243619 18.8122969838 413.186450116 20.1804640371 397.794570766 28.047424594 c 0
 378.982273782 37.9666357309 358.117726218 57.4630162413 350.592807425 71.8287703016 c 0
 348.198515081 76.6173549884 268.844825986 295.182041763 174.099257541 557.528074246 c 0
 -16.075962877 1085.29851508 -8.20900232019 1058.9612993 7.18287703016 1099.66426914 c 0
 17.1020881671 1126.00148492 42.7552204176 1152.3387007 68.4083526682 1162.5999536 c 0
EndSplineSet
EndChar

StartChar: x
Encoding: 120 120 68
Width: 1131
VWidth: 0
Flags: HW
LayerCount: 2
Fore
SplineSet
72.8548955916 1143.10357309 m 0
 110.479489559 1156.44320186 156.997169374 1145.15582367 185.386635731 1115.74023202 c 0
 193.937679814 1106.84714617 266.108491879 1020.31058005 345.462180974 923.512761021 c 0
 424.81587007 826.714941995 491.171972158 747.3612529 492.540139211 747.3612529 c 0
 494.250348028 747.3612529 560.264408353 826.714941995 639.618097448 923.512761021 c 0
 718.971786543 1020.31058005 790.800556845 1106.84714617 799.693642691 1115.74023202 c 0
 821.242273782 1137.97294664 843.474988399 1147.20807425 875.626914153 1147.55011601 c 0
 906.410672854 1147.55011601 931.037679814 1137.28886311 952.244269142 1116.42431555 c 0
 973.792900232 1094.87568445 981.659860789 1074.01113689 981.659860789 1039.46491879 c 0
 981.659860789 1013.46974478 980.291693735 1007.6550348 972.424733179 992.263155452 c 0
 966.952064965 982.685986079 891.70287703 887.940417633 804.824269142 781.907470998 c 0
 717.60361949 675.874524362 643.380556845 585.57549884 639.960139211 580.786914153 c 2
 633.119303944 572.23587007 l 1
 659.456519722 540.083944316 l 2
 673.822273782 522.297772622 748.729419954 430.97262181 826.030858469 336.911136891 c 0
 902.99025522 242.849651972 969.688399072 159.049419954 974.134941995 150.840417633 c 0
 984.054153132 130.659953596 984.738236659 81.0638979118 975.161067285 59.5152668213 c 0
 966.267981439 40.0188863109 949.165893271 21.5486310905 928.985429234 9.91921113689 c 0
 912.909466357 0.684083526682 909.147006961 0 875.626914153 0 c 0
 818.163897912 0 829.451276102 -10.2612529002 647.827099768 208.645475638 c 0
 562.658700696 310.915962877 491.856055684 395.058236659 490.145846868 395.742320186 c 0
 488.777679814 396.084361949 422.079535963 316.38863109 342.041763341 218.564686775 c 0
 262.003990719 120.740742459 190.859303944 34.5462180974 183.334385151 27.3633410673 c 0
 161.78575406 5.47266821346 146.735916473 0 107.401113689 0 c 0
 76.2753132251 0 72.170812065 0.684083526682 56.0948491879 10.2612529002 c 0
 5.47266821346 38.9927610209 -14.023712297 100.218236659 11.2873781903 150.49837587 c 0
 16.7600464037 161.78575406 88.5888167053 252.084779582 186.070719258 370.773271462 c 2
 351.618932715 572.23587007 l 1
 282.52649652 656.378143852 l 2
 61.2254756381 925.565011601 16.4180046404 980.975777262 9.91921113689 994.657447796 c 0
 -0.342041763341 1015.52199536 -2.39429234339 1050.75229698 4.78858468677 1073.32705336 c 0
 16.075962877 1106.50510441 40.0188863109 1131.47415313 72.8548955916 1143.10357309 c 0
EndSplineSet
EndChar

StartChar: y
Encoding: 121 121 69
Width: 1230
VWidth: 0
Flags: HW
LayerCount: 2
Fore
SplineSet
83.8002320186 1146.18194896 m 0
 115.952157773 1154.73299304 161.101670534 1141.05132251 185.044593968 1116.08227378 c 0
 191.885429234 1108.89939675 273.29136891 998.419907193 365.984686775 870.496287703 c 0
 458.67800464 742.572668213 536.321484919 635.855638051 538.715777262 633.461345708 c 0
 542.136194896 629.698886311 576.34037123 674.506357309 719.313828306 871.522412993 c 0
 816.453689095 1004.9187007 900.595962877 1118.47656613 907.094756381 1123.60719258 c 0
 958.401020882 1166.70445476 1042.54329466 1149.60236659 1071.95888631 1090.42914153 c 0
 1079.4838051 1075.03726218 1080.85197216 1068.19642691 1080.85197216 1040.14900232 c 0
 1080.85197216 1014.49587007 1079.4838051 1004.9187007 1074.01113689 993.973364269 c 0
 1070.24867749 986.106403712 973.108816705 850.999907193 858.524825986 693.318654292 c 2
 649.879350348 406.687656613 l 1
 649.879350348 246.612111369 l 2
 649.879350348 63.6197679814 649.879350348 63.2777262181 623.200092807 33.5200928074 c 0
 599.599211137 7.5249187935 581.813039443 0 542.136194896 0 c 0
 514.430812065 0 506.905893271 1.36816705336 493.224222738 8.20900232019 c 0
 473.727842227 18.1282134571 455.257587007 37.2825522042 444.31225058 58.147099768 c 2
 436.10324826 73.5389791183 l 1
 435.07712297 240.113317865 l 1
 434.05099768 407.029698376 l 1
 225.747563805 693.318654292 l 2
 110.821531323 850.999907193 13.6816705336 986.790487239 9.57716937355 995.341531323 c 0
 3.07837587007 1007.6550348 1.71020881671 1016.54812065 1.71020881671 1039.80696056 c 0
 1.71020881671 1064.77600928 3.07837587007 1071.61684455 11.2873781903 1088.37689095 c 0
 24.9690487239 1116.08227378 52.3323897912 1137.97294664 83.8002320186 1146.18194896 c 0
EndSplineSet
EndChar

StartChar: z
Encoding: 122 122 70
Width: 1076
VWidth: 0
Flags: HW
LayerCount: 2
Fore
SplineSet
78.6696055684 1144.47174014 m 0
 90.299025522 1147.89215777 183.33448136 1148.68526542 465.518839907 1148.91828306 c 0
 879.731415313 1149.26032483 859.1640625 1149.96875 892 1125 c 0
 901.235351562 1118.15917969 909.43846711 1105.99823333 914.961716937 1096.58589327 c 0
 920 1088 924.113015555 1078.09955479 925.222969838 1039.80696056 c 0
 926 1013 924.538886311 999.103990719 916.329883991 986.448445476 c 0
 911.541299304 979.265568445 777.118886311 802.429976798 617.385382831 593.442459397 c 2
 327.67578125 212.776367188 l 1
 590.364083527 212.065893271 l 1
 853.394199536 210.355684455 l 1
 868.10199536 202.488723898 l 2
 889.992668213 190.859303944 908.462923434 172.731090487 918.040092807 152.892668213 c 0
 925.565011601 138.18487239 926.933178654 131.00199536 926.933178654 104.664779582 c 0
 926.591136891 58.8311832947 911.541299304 31.4678422274 874.2587471 9.91921113689 c 2
 856.814617169 0 l 1
 465.518839907 0 l 1
 73.8810208817 0 l 1
 58.4891415313 7.5249187935 l 2
 39.6768445476 16.4180046404 19.8384222738 35.9143851508 9.57716937355 55.4107656613 c 0
 -1.02612529002 75.249187935 -2.05225058005 132.02812065 8.20900232019 150.156334107 c 0
 11.6294199536 156.65512761 146.051832947 334.174802784 306.469419954 544.530487239 c 0
 467.229048724 754.886171694 598.573242188 930.6171875 598.573242188 931.643554688 c 4
 598.573242188 932.327148438 482.62109375 931.6953125 341.357421875 932.038085938 c 2
 83.8002320186 932.063805104 l 1
 64.9879350348 940.956890951 l 2
 22.9167981439 960.453271462 3.07837587007 989.868863109 0.684083526682 1035.01837587 c 0
 -0.684083526682 1059.98742459 0.342041763341 1065.46009281 8.20900232019 1082.90422274 c 0
 22.9167981439 1115.05614849 46.8597215777 1136.26273782 78.6696055684 1144.47174014 c 0
EndSplineSet
EndChar
